<?xml version="1.0" encoding="UTF-8"?>
<svg xmlns="http://www.w3.org/2000/svg" viewBox="0 0 435.06 418.01">
  <defs>
    <style>
      .cls-1 {
        fill: #fff;
      }

      .cls-2 {
        fill: #dbdbdb;
      }

      .cls-3 {
        fill: #37474f;
      }

      .cls-4 {
        fill: #455a64;
      }

      .cls-5 {
        fill: #a6a6a6;
      }

      .cls-6 {
        opacity: .2;
      }

      .cls-7 {
        fill: #c95f50;
      }

      .cls-8 {
        fill: #c7c7c7;
      }

      .cls-9 {
        opacity: .1;
      }

      .cls-10 {
        fill: #ebebeb;
      }

      .cls-11 {
        fill: #ffc727;
      }

      .cls-12 {
        fill: #263238;
      }
    </style>
  </defs>
  <g id="Shadow">
    <path class="cls-10" d="m421.06,383.92c0,13.14-88.79,23.78-198.31,23.78s-198.31-10.65-198.31-23.78,88.79-23.78,198.31-23.78,198.31,10.65,198.31,23.78Z"/>
  </g>
  <g id="Screen">
    <g>
      <path class="cls-1" d="m357.97,27.14v324.06c0,9.16-6.86,16.57-15.32,16.57h-151.24c-8.48,0-15.34-7.41-15.34-16.57V27.14c0-18.66,6.86-19.57,15.34-19.57h30.3c1.76,0,3.2,2,3.2,4.48v1.07c0,5.81,3.18,5.83,7.08,5.83h70.06c3.94,0,7.1-.02,7.1-5.83v-1.07c0-2.48,1.42-4.48,3.21-4.48h30.29c8.46,0,15.32,2.48,15.32,19.57Z"/>
      <g>
        <path class="cls-1" d="m357.97,27.14v324.06c0,9.16-6.86,16.57-15.32,16.57h-151.24c-8.48,0-15.34-7.41-15.34-16.57V27.14c0-18.66,6.86-19.57,15.34-19.57h30.3c1.76,0,3.2,2,3.2,4.48v1.07c0,5.81,3.18,5.83,7.08,5.83h70.06c3.94,0,7.1-.02,7.1-5.83v-1.07c0-2.48,1.42-4.48,3.21-4.48h30.29c8.46,0,15.32,2.48,15.32,19.57Z"/>
        <path class="cls-12" d="m357.97,27.14l.25,268.6.03,33.57.02,16.79v4.2c.03,1.39-.07,2.84-.3,4.23-.54,2.79-1.7,5.48-3.5,7.7-.87,1.13-1.94,2.09-3.07,2.97-1.18.8-2.42,1.54-3.77,2-1.35.47-2.76.8-4.19.85-1.43.09-2.81.03-4.21.05l-16.79.02-33.57.03-67.15.06-16.79.02h-8.39s-4.2.01-4.2.01c-1.38.03-2.87-.08-4.27-.38-1.4-.34-2.76-.86-4.02-1.57-1.23-.74-2.43-1.58-3.42-2.63-2.07-2.02-3.48-4.63-4.33-7.37-.35-1.39-.65-2.81-.68-4.25-.08-1.44-.02-2.81-.04-4.22v-8.39s.24-268.6.24-268.6l.03-33.57v-8.39c0-2.8.06-5.61.4-8.4l.31-2.09.49-2.06c.2-.68.45-1.34.68-2.01.31-.63.58-1.3.96-1.9.73-1.23,1.74-2.28,2.91-3.09,1.21-.77,2.58-1.23,3.96-1.52,2.79-.51,5.62-.39,8.41-.4h8.39s16.79.02,16.79.02h2.1c.34,0,.72-.02,1.08.08.36.1.7.26.99.48,1.17.92,1.68,2.41,1.74,3.82.02,1.41-.05,2.81.37,4.12.19.66.54,1.25,1.03,1.71.49.46,1.12.74,1.79.9,1.34.32,2.75.26,4.14.27h4.2s8.39.01,8.39.01l33.57.03,16.79.02c2.8,0,5.6.03,8.39-.01,1.37-.05,2.85-.21,3.9-1.13.51-.46.88-1.07,1.07-1.73.22-.66.31-1.35.36-2.04.04-.7.03-1.39.04-2.1.03-.7.15-1.41.43-2.06.27-.65.67-1.26,1.24-1.7.28-.21.6-.38.95-.49.35-.1.71-.09,1.06-.09h8.39s16.79.02,16.79.02h4.2c1.4,0,2.8.03,4.19.23,2.76.33,5.56,1.38,7.44,3.49,1.9,2.08,2.92,4.8,3.47,7.53.55,2.75.69,5.55.73,8.35Zm0,0c-.04-2.8-.19-5.6-.74-8.35-.55-2.73-1.58-5.44-3.48-7.52-1.88-2.1-4.67-3.14-7.43-3.46-1.38-.19-2.79-.22-4.18-.22h-4.2s-16.79.02-16.79.02h-8.39c-.35,0-.7,0-1.03.1-.33.1-.63.26-.91.47-.54.43-.94,1.02-1.2,1.66-.58,1.29-.36,2.73-.45,4.12-.04.7-.14,1.4-.36,2.08-.2.68-.58,1.31-1.11,1.79-1.09.96-2.61,1.12-3.99,1.17-2.8.05-5.6.02-8.4.03l-16.79.02-33.57.03h-8.39s-4.2.01-4.2.01c-1.39-.02-2.81.06-4.21-.28-.69-.17-1.38-.47-1.91-.97-.53-.5-.91-1.15-1.11-1.83-.45-1.37-.37-2.83-.39-4.2-.05-1.35-.56-2.76-1.62-3.59-.27-.2-.57-.35-.88-.43-.31-.09-.65-.06-1-.07h-2.1s-16.79.02-16.79.02h-8.39c-2.8.03-5.61-.09-8.33.42-1.35.28-2.67.73-3.82,1.47-1.12.79-2.08,1.79-2.79,2.97-.37.58-.62,1.23-.93,1.84-.22.66-.46,1.3-.66,1.97l-.47,2.03-.31,2.06c-.32,2.77-.39,5.55-.37,8.35v8.39s.04,33.57.04,33.57l.25,268.6v8.39c0,1.39-.05,2.82.03,4.17.02,1.36.3,2.71.64,4.02.8,2.59,2.12,5.06,4.07,6.96.93.99,2.05,1.78,3.21,2.48,1.18.67,2.45,1.16,3.77,1.48,1.34.29,2.65.4,4.06.37h4.2s8.39.01,8.39.01l16.79.02,67.15.06,33.57.03,16.79.02c1.39-.02,2.82.04,4.18-.04,1.37-.04,2.72-.36,4-.8,1.3-.44,2.49-1.15,3.62-1.91,1.08-.84,2.11-1.76,2.95-2.85,1.73-2.13,2.86-4.73,3.39-7.42.23-1.36.32-2.72.3-4.12v-4.2s.02-16.79.02-16.79l.03-33.57.25-268.6Z"/>
      </g>
      <g>
        <path class="cls-11" d="m357.97,27.14v38.85h-181.9V27.14c0-18.66,6.86-19.57,15.34-19.57h30.3c1.76,0,3.2,2,3.2,4.48v1.07c0,5.81,3.18,5.83,7.08,5.83h70.06c3.94,0,7.1-.02,7.1-5.83v-1.07c0-2.48,1.42-4.48,3.21-4.48h30.29c8.46,0,15.32,2.48,15.32,19.57Z"/>
        <g>
          <g id="u5Zjqx">
            <g>
              <path class="cls-1" d="m216.48,14.85c-.1.1-.2.19-.29.29-.06.06-.11.11-.17.17-.79-.76-1.72-1.17-2.82-1.17s-2.03.41-2.82,1.17c-.05-.05-.1-.11-.16-.16-.1-.1-.19-.19-.29-.29,0,0,0,0,0,0h0s.01-.02.02-.02c.12-.11.24-.22.37-.33.26-.22.55-.4.86-.55.36-.18.74-.31,1.13-.38.19-.03.38-.05.57-.08.06,0,.48,0,.5,0,.13,0,.26.02.39.03.36.04.7.13,1.04.25.24.09.48.2.7.33.24.14.46.29.67.47.11.09.21.19.31.28h0Z"/>
              <path class="cls-1" d="m211.31,16.22c-.15-.15-.31-.3-.46-.46.53-.52,1.15-.85,1.88-.94,1.09-.15,2.03.18,2.83.94-.16.16-.31.31-.46.46-.52-.51-1.15-.78-1.89-.78-.74,0-1.37.27-1.89.79Z"/>
              <path class="cls-1" d="m214.63,16.69c-.15.15-.31.3-.46.46-.27-.26-.59-.4-.97-.4-.38,0-.7.14-.97.4-.15-.15-.31-.31-.46-.46.73-.77,2.05-.83,2.86,0Z"/>
            </g>
            <path class="cls-1" d="m213.62,17.56c0,.23-.19.42-.42.42s-.42-.19-.42-.42.19-.42.42-.42.42.19.42.42Z"/>
          </g>
          <g>
            <path class="cls-1" d="m187.94,15.73c0-.67.54-1.21,1.21-1.21s1.21.54,1.21,1.21-.54,1.21-1.21,1.21-1.21-.54-1.21-1.21Z"/>
            <path class="cls-1" d="m191.73,15.73c0-.67.54-1.21,1.21-1.21s1.21.54,1.21,1.21-.54,1.21-1.21,1.21-1.21-.54-1.21-1.21Z"/>
            <path class="cls-1" d="m195.53,15.73c0-.67.54-1.21,1.21-1.21s1.21.54,1.21,1.21-.54,1.21-1.21,1.21-1.21-.54-1.21-1.21Z"/>
            <path class="cls-1" d="m199.33,15.73c0-.67.54-1.21,1.21-1.21s1.21.54,1.21,1.21-.54,1.21-1.21,1.21-1.21-.54-1.21-1.21Z"/>
            <path class="cls-1" d="m203.12,15.73c0-.67.54-1.21,1.21-1.21s1.21.54,1.21,1.21-.54,1.21-1.21,1.21-1.21-.54-1.21-1.21Z"/>
          </g>
          <g>
            <path class="cls-1" d="m344.33,18.36h-9.81v-4.55h9.81v4.55Zm-9.31-.5h8.81v-3.55h-8.81v3.55Z"/>
            <rect class="cls-1" x="335.33" y="14.59" width="6.33" height="3"/>
            <rect class="cls-1" x="344.34" y="14.87" width=".87" height="2.43"/>
          </g>
        </g>
        <g>
          <polygon class="cls-1" points="192.65 55.31 187.28 50.28 192.65 45.24 193.49 46.13 189.06 50.28 193.49 54.43 192.65 55.31"/>
          <g>
            <path class="cls-1" d="m243.26,50.97h-1.16v2.05c0,.28-.24.52-.53.52s-.52-.24-.52-.52v-5.56c0-.29.24-.52.52-.52h1.69c1.12,0,2.03.91,2.03,2.03s-.91,2.01-2.03,2.01Zm-1.16-1.05h1.16c.55,0,.97-.43.98-.96,0-.55-.43-.98-.98-.98h-1.16v1.94Z"/>
            <path class="cls-1" d="m249.26,51.98h-2.29l-.46,1.23c-.08.21-.28.33-.49.33-.07,0-.12,0-.18-.03-.27-.1-.41-.41-.31-.68l2.08-5.55c.08-.21.29-.34.5-.33.22,0,.41.12.5.33l2.08,5.55c.09.27-.04.58-.31.68-.05.02-.11.03-.18.03-.21,0-.41-.12-.48-.33l-.46-1.23Zm-.39-1.04l-.76-2.03-.76,2.03h1.53Z"/>
            <path class="cls-1" d="m251.62,51.89c.17-.21.48-.24.69-.07.41.34,1.13.74,1.8.73.47,0,.9-.14,1.18-.35s.41-.44.41-.68c0-.12-.03-.21-.08-.3-.06-.09-.14-.19-.28-.28-.27-.18-.74-.34-1.29-.44h-.02c-.44-.08-.86-.2-1.22-.37-.36-.17-.67-.41-.88-.74-.14-.23-.22-.49-.22-.77,0-.57.32-1.06.75-1.38.44-.32,1.02-.5,1.63-.5.91,0,1.57.44,2.06.75.22.15.28.45.13.67-.14.23-.44.29-.67.14-.48-.32-.94-.6-1.52-.6-.42,0-.8.13-1.06.32-.25.19-.36.4-.36.59,0,.11.02.19.07.26.05.08.13.16.25.25.25.17.67.32,1.18.41h.02c.48.09.92.22,1.3.4.39.19.73.43.94.78.14.23.23.51.23.8,0,.6-.34,1.12-.81,1.46-.46.34-1.07.54-1.74.54-1.02,0-1.88-.52-2.41-.94-.21-.17-.24-.48-.08-.69Z"/>
            <path class="cls-1" d="m257.82,51.89c.17-.21.48-.24.69-.07.42.34,1.13.74,1.8.73.47,0,.9-.14,1.18-.35s.41-.44.41-.68c0-.12-.03-.21-.08-.3-.06-.09-.14-.19-.28-.28-.27-.18-.74-.34-1.29-.44h-.02c-.44-.08-.86-.2-1.22-.37-.36-.17-.67-.41-.88-.74-.14-.23-.22-.49-.22-.77,0-.57.32-1.06.75-1.38.44-.32,1.02-.5,1.63-.5.91,0,1.57.44,2.06.75.22.15.28.45.13.67-.14.23-.44.29-.67.14-.48-.32-.94-.6-1.52-.6-.42,0-.8.13-1.06.32-.25.19-.36.4-.36.59,0,.11.02.19.07.26.05.08.13.16.25.25.25.17.67.32,1.18.41h.02c.48.09.92.22,1.3.4.39.19.73.43.94.78.14.23.23.51.23.8,0,.6-.34,1.12-.81,1.46-.46.34-1.07.54-1.74.54-1.02,0-1.88-.52-2.41-.94-.21-.17-.24-.48-.08-.69Z"/>
            <path class="cls-1" d="m272.78,47.72l-2.31,5.5s-.03.07-.05.09h0s-.03.05-.05.07c0,.02,0,.02,0,.03-.02,0-.05.03-.07.05h0s-.05.05-.08.06h0s0,0,0,0c-.02,0-.05,0-.08.02h-.02s-.06,0-.09,0c-.03,0-.06,0-.08,0h-.03s-.05-.02-.07-.02t-.02,0s-.07-.04-.08-.06h0s-.05-.04-.07-.05t-.02-.03s-.03-.04-.04-.06c-.02,0-.02,0-.02,0-.02-.02-.03-.06-.04-.09l-1.24-2.92-1.24,2.92s-.03.07-.04.09c0,0,0,0,0,0-.02.02-.04.04-.06.06,0,.02,0,.02,0,.03-.02,0-.04.03-.06.05h-.02s-.06.05-.08.06h0s0,0,0,0c-.04,0-.06,0-.08.02h-.03s-.06,0-.08,0-.07,0-.09,0h-.03s-.05-.02-.07-.02t-.02,0s-.07-.04-.08-.06h0s-.04-.04-.07-.05t-.02-.03s-.03-.04-.05-.06h0s-.03-.07-.05-.09l-2.32-5.5c-.1-.25,0-.57.28-.67.25-.11.57,0,.67.27l1.85,4.37,1.22-2.9c.08-.21.28-.32.49-.32s.4.11.49.32l1.22,2.9,1.84-4.37c.11-.26.41-.39.69-.27.25.1.38.42.26.67Z"/>
            <path class="cls-1" d="m279.36,47.75c.58.62.95,1.45.95,2.39s-.37,1.77-.95,2.39c-.56.61-1.39,1.01-2.25,1.01s-1.74-.4-2.31-1.01c-.58-.61-.93-1.45-.93-2.39s.35-1.76.93-2.39c.58-.62,1.41-1.01,2.31-1.01s1.7.39,2.25,1.01Zm-.12,2.39c0-.64-.25-1.24-.64-1.65-.4-.42-.92-.67-1.49-.67-.6,0-1.13.25-1.53.67-.4.41-.64,1.01-.64,1.65s.25,1.23.64,1.64c.4.42.92.68,1.53.68.57,0,1.09-.25,1.49-.68.39-.41.64-1,.64-1.64Z"/>
            <path class="cls-1" d="m286.53,52.75c.09.27-.06.57-.33.66-.04,0-.11.03-.21.03h0c-.09,0-.24-.02-.37-.1-.12-.08-.23-.2-.3-.33-.13-.27-.2-.61-.2-1.13,0-.18-.05-.3-.11-.41-.06-.1-.17-.2-.28-.27-.2-.13-.44-.21-.53-.23h-1.11v2.05c0,.28-.24.52-.53.52s-.52-.24-.52-.52v-5.56c0-.29.23-.52.52-.52h1.69c1.12,0,2.02.91,2.02,2.03,0,.62-.28,1.17-.74,1.55.12.09.24.21.33.35.19.27.31.62.31,1.02,0,.28.02.46.04.56.15.05.27.16.33.32Zm-1.32-3.79c0-.55-.43-.98-.97-.98h-1.16v1.94h1.16c.54,0,.97-.43.97-.96Z"/>
            <path class="cls-1" d="m288.06,53.01v-5.56c0-.29.23-.52.52-.52h1.11c1.82,0,3.29,1.48,3.29,3.29s-1.47,3.31-3.29,3.31h-1.11c-.29,0-.52-.24-.52-.52Zm1.05-.53h.58c1.24,0,2.24-1.01,2.24-2.26s-1-2.24-2.24-2.24h-.58v4.51Z"/>
          </g>
        </g>
      </g>
      <g>
        <g>
          <path class="cls-12" d="m201.46,223.88v-4.13c0-.22.17-.39.39-.39h2.29c.2,0,.39.17.39.39s-.18.39-.39.39h-1.9v1.28h1.63c.21,0,.39.18.39.39,0,.22-.18.39-.39.39h-1.63v1.29h1.9c.2,0,.39.17.39.39s-.18.39-.39.39h-2.27s-.01,0-.01,0h0c-.22,0-.39-.17-.39-.38Z"/>
          <path class="cls-12" d="m208.46,222.21v1.68c0,.2-.17.37-.37.37s-.38-.17-.38-.37v-1.68c0-.39-.33-.7-.72-.7s-.71.32-.71.72v1.66s0,.04,0,.05v.02s0,.03-.02.04v.04c-.06.13-.2.22-.35.22-.03,0-.05,0-.07,0-.17-.04-.3-.18-.3-.36v-1.66h0v-1.09c0-.22.17-.38.37-.38.15,0,.28.08.34.21.22-.13.48-.21.75-.21.44,0,.83.18,1.1.48.26-.3.66-.48,1.1-.48.81,0,1.46.66,1.46,1.47v1.66c0,.2-.17.37-.37.37s-.38-.17-.38-.37v-1.66c0-.4-.32-.72-.71-.72s-.71.32-.73.7Z"/>
          <path class="cls-12" d="m215.15,222.52v1.37c0,.2-.17.37-.37.37-.18,0-.32-.13-.36-.3-.27.19-.58.3-.93.3-.48,0-.89-.2-1.19-.51-.3-.32-.48-.76-.48-1.23s.17-.92.48-1.23c.3-.32.71-.53,1.19-.53.35,0,.67.12.93.31.04-.17.18-.31.36-.31.2,0,.37.17.37.38v1.38Zm-.74,0c0-.29-.1-.55-.27-.72-.17-.19-.41-.29-.65-.29s-.49.1-.65.29c-.17.18-.27.43-.27.72s.1.54.27.72c.16.17.4.27.65.27s.48-.1.65-.27c.17-.18.27-.43.27-.72Z"/>
          <path class="cls-12" d="m217.28,219.89c0,.21-.16.39-.38.39s-.38-.18-.38-.39v-.15c0-.21.17-.38.38-.38s.38.17.38.38v.15Zm0,1.27v2.73c0,.21-.16.38-.38.38s-.38-.17-.38-.38v-2.73c0-.22.17-.39.38-.39s.38.16.38.39Z"/>
          <path class="cls-12" d="m218.78,219.36c.22,0,.39.18.39.39v4.13c0,.21-.18.39-.39.39s-.39-.18-.39-.39v-4.13c0-.21.18-.39.39-.39Z"/>
        </g>
        <g>
          <rect class="cls-10" x="200.73" y="229.25" width="132.58" height="11.74"/>
          <g>
            <path class="cls-8" d="m204.14,235.68c0-.95.75-1.75,1.71-1.75s1.63.68,1.69,1.62v.04s0,.05,0,.06c-.02.17-.17.28-.36.28h-2.23c.04.16.11.34.24.46.15.17.43.29.67.32.25.02.55-.04.73-.18.15-.15.43-.13.52-.02.09.1.16.31,0,.46-.34.32-.76.46-1.25.46-.96,0-1.7-.8-1.71-1.75Zm.76-.34h1.98c-.07-.28-.43-.69-1.04-.74-.6.03-.89.45-.95.74Z"/>
            <path class="cls-8" d="m211.57,235.38v1.68c0,.2-.17.37-.37.37s-.38-.17-.38-.37v-1.68c0-.39-.33-.7-.72-.7s-.71.32-.71.72v1.66s0,.04,0,.05v.02s0,.03-.02.04v.04c-.06.13-.2.22-.35.22-.03,0-.05,0-.07,0-.17-.04-.3-.18-.3-.36v-1.66h0v-1.09c0-.22.17-.38.37-.38.15,0,.28.08.34.21.22-.13.48-.21.75-.21.44,0,.83.18,1.1.48.26-.3.66-.48,1.1-.48.81,0,1.46.66,1.46,1.47v1.66c0,.2-.17.37-.37.37s-.38-.17-.38-.37v-1.66c0-.4-.32-.72-.71-.72s-.71.31-.73.7Z"/>
            <path class="cls-8" d="m218.26,235.69v1.37c0,.2-.17.37-.37.37-.18,0-.32-.13-.36-.3-.27.19-.58.3-.93.3-.48,0-.89-.2-1.19-.51-.3-.32-.48-.76-.48-1.23s.17-.92.48-1.23c.3-.32.71-.53,1.19-.53.35,0,.67.12.93.31.04-.17.18-.31.36-.31.2,0,.37.17.37.38v1.38Zm-.74,0c0-.29-.1-.55-.27-.72-.17-.19-.41-.29-.65-.29s-.49.1-.65.29c-.17.18-.27.43-.27.72s.1.54.27.72c.16.17.4.27.65.27s.48-.1.65-.27c.17-.18.27-.43.27-.72Z"/>
            <path class="cls-8" d="m220.4,233.06c0,.21-.16.39-.38.39s-.38-.18-.38-.39v-.15c0-.21.17-.38.38-.38s.38.17.38.38v.15Zm0,1.27v2.73c0,.21-.16.38-.38.38s-.38-.17-.38-.38v-2.73c0-.22.17-.39.38-.39s.38.16.38.39Z"/>
            <path class="cls-8" d="m221.89,232.53c.22,0,.39.18.39.39v4.13c0,.21-.18.39-.39.39s-.39-.18-.39-.39v-4.13c0-.21.18-.39.39-.39Z"/>
            <path class="cls-8" d="m226.16,235.69v1.37c0,.2-.17.37-.37.37-.18,0-.32-.13-.36-.3-.27.19-.58.3-.93.3-.48,0-.89-.2-1.19-.51-.3-.32-.48-.76-.48-1.23s.17-.92.48-1.23c.3-.32.71-.53,1.19-.53.35,0,.67.12.93.31.04-.17.18-.31.36-.31.2,0,.37.17.37.38v1.38Zm-.74,0c0-.29-.1-.55-.27-.72-.17-.19-.41-.29-.65-.29s-.49.1-.65.29c-.17.18-.27.43-.27.72s.1.54.27.72c.16.17.4.27.65.27s.48-.1.65-.27c.17-.18.27-.43.27-.72Z"/>
            <path class="cls-8" d="m230.7,237.05c0,.2-.17.38-.38.38-.19,0-.34-.13-.37-.3-.27.18-.6.3-.95.3-.95,0-1.7-.8-1.7-1.74s.76-1.76,1.7-1.76c.34,0,.68.11.94.29v-1.32c0-.2.17-.38.39-.38s.38.18.38.38v2.77h0v1.37Zm-1.7-2.36c-.25,0-.48.1-.66.29-.18.17-.28.43-.28.71s.1.52.28.69c.17.18.41.29.66.29s.48-.11.66-.29c.18-.17.28-.43.28-.69,0-.28-.1-.53-.28-.71-.17-.18-.4-.29-.66-.29Z"/>
            <path class="cls-8" d="m234.31,234.3c0,.2-.16.37-.37.37-.16,0-.3.04-.42.13-.13.08-.24.2-.32.34-.17.22-.25.49-.29.59v1.33c0,.2-.17.37-.39.37s-.37-.17-.37-.37v-2.76c0-.2.17-.36.37-.36s.39.16.39.36v.05s.1-.1.15-.14c.23-.15.53-.28.88-.27.21,0,.37.16.37.36Z"/>
            <path class="cls-8" d="m234.63,235.68c0-.95.75-1.75,1.71-1.75.91,0,1.63.68,1.69,1.62v.04s0,.05,0,.06c-.02.17-.17.28-.36.28h-2.23c.03.16.11.34.24.46.15.17.43.29.67.32.25.02.55-.04.73-.18.15-.15.43-.13.53-.02.09.1.16.31,0,.46-.34.32-.76.46-1.25.46-.96,0-1.7-.8-1.71-1.75Zm.76-.34h1.98c-.07-.28-.43-.69-1.04-.74-.6.03-.89.45-.95.74Z"/>
            <path class="cls-8" d="m238.97,236.43c.13-.17.37-.19.53-.06.18.15.5.32.77.31.19,0,.36-.06.48-.13.1-.08.13-.15.13-.21,0-.03,0-.05-.02-.07,0-.02-.04-.05-.09-.08-.1-.07-.31-.15-.56-.2h0c-.22-.04-.43-.1-.61-.18-.19-.09-.36-.22-.48-.41-.08-.13-.12-.28-.12-.44,0-.32.18-.6.41-.77.25-.17.54-.26.86-.26.48,0,.83.23,1.05.39.17.11.22.34.11.52-.11.17-.34.22-.52.1-.22-.15-.42-.26-.64-.26-.17,0-.33.06-.42.13-.09.06-.11.13-.11.16,0,.03,0,.03.01.06,0,.01.03.04.08.07.09.06.27.13.51.17h0s0,0,0,0c.23.04.45.11.65.2.19.08.38.22.5.41.08.14.13.3.13.46,0,.34-.19.63-.44.81-.25.18-.57.28-.91.28-.55,0-.97-.26-1.25-.48-.15-.13-.17-.36-.05-.52Z"/>
            <path class="cls-8" d="m242.34,236.43c.13-.17.37-.19.53-.06.18.15.5.32.77.31.19,0,.36-.06.48-.13.1-.08.13-.15.13-.21,0-.03,0-.05-.02-.07,0-.02-.04-.05-.09-.08-.1-.07-.31-.15-.56-.2h0c-.22-.04-.43-.1-.61-.18-.19-.09-.36-.22-.48-.41-.08-.13-.12-.28-.12-.44,0-.32.18-.6.41-.77.25-.17.54-.26.86-.26.48,0,.83.23,1.05.39.17.11.22.34.11.52-.11.17-.34.22-.52.1-.22-.15-.42-.26-.64-.26-.17,0-.33.06-.42.13-.09.06-.11.13-.11.16,0,.03,0,.03.01.06,0,.01.03.04.08.07.09.06.27.13.51.17h0s0,0,0,0c.23.04.45.11.65.2.19.08.38.22.5.41.08.14.13.3.13.46,0,.34-.19.63-.44.81-.25.18-.57.28-.91.28-.55,0-.97-.26-1.25-.48-.15-.13-.17-.36-.05-.52Z"/>
            <path class="cls-8" d="m250.57,234.97c0,.41-.09.79-.27,1.13h0s-.07.13-.18.25c-.12.12-.29.27-.55.34-.06.01-.12.02-.18.02-.22,0-.43-.11-.53-.26-.06-.07-.09-.14-.11-.21-.19.1-.4.15-.63.15-.38,0-.73-.16-.97-.42-.24-.26-.38-.61-.38-1s.15-.74.38-.99c.24-.26.59-.43.97-.43s.73.17.97.43c.24.25.38.61.38.99v.92s.03-.02.05-.04c.04-.04.08-.1.09-.11.11-.22.17-.48.17-.76,0-.92-.74-1.67-1.67-1.67s-1.67.75-1.67,1.67.75,1.67,1.67,1.67c.15,0,.29-.01.42-.04.2-.06.42.07.47.27.05.21-.07.42-.28.48-.2.05-.4.08-.61.08-1.35,0-2.44-1.1-2.44-2.46s1.09-2.44,2.44-2.44,2.45,1.1,2.45,2.44Zm-1.87,0c0-.18-.07-.34-.17-.46-.11-.11-.25-.18-.41-.18s-.29.07-.4.18c-.11.12-.17.28-.17.46s.06.35.17.47c.11.11.25.18.4.18s.29-.06.41-.18c.11-.12.17-.28.17-.47Z"/>
            <path class="cls-8" d="m255.74,235.38v1.68c0,.2-.17.37-.37.37s-.38-.17-.38-.37v-1.68c0-.39-.33-.7-.72-.7s-.71.32-.71.72v1.66s0,.04,0,.05v.02s0,.03-.02.04v.04c-.06.13-.2.22-.35.22-.03,0-.05,0-.07,0-.17-.04-.3-.18-.3-.36v-1.66h0v-1.09c0-.22.17-.38.37-.38.15,0,.28.08.34.21.22-.13.48-.21.75-.21.44,0,.83.18,1.1.48.26-.3.66-.48,1.1-.48.8,0,1.46.66,1.46,1.47v1.66c0,.2-.17.37-.37.37s-.38-.17-.38-.37v-1.66c0-.4-.32-.72-.71-.72s-.71.31-.73.7Z"/>
            <path class="cls-8" d="m262.43,235.69v1.37c0,.2-.17.37-.37.37-.18,0-.32-.13-.36-.3-.27.19-.58.3-.93.3-.48,0-.89-.2-1.19-.51-.3-.32-.48-.76-.48-1.23s.17-.92.48-1.23c.3-.32.71-.53,1.19-.53.35,0,.66.12.93.31.04-.17.18-.31.36-.31.2,0,.37.17.37.38v1.38Zm-.74,0c0-.29-.1-.55-.27-.72-.17-.19-.41-.29-.65-.29s-.49.1-.65.29c-.17.18-.27.43-.27.72s.1.54.27.72c.16.17.4.27.65.27s.48-.1.65-.27c.17-.18.27-.43.27-.72Z"/>
            <path class="cls-8" d="m264.57,233.06c0,.21-.16.39-.38.39s-.38-.18-.38-.39v-.15c0-.21.17-.38.38-.38s.38.17.38.38v.15Zm0,1.27v2.73c0,.21-.16.38-.38.38s-.38-.17-.38-.38v-2.73c0-.22.17-.39.38-.39s.38.16.38.39Z"/>
            <path class="cls-8" d="m266.06,232.53c.22,0,.39.18.39.39v4.13c0,.21-.17.39-.39.39s-.39-.18-.39-.39v-4.13c0-.21.17-.39.39-.39Z"/>
            <path class="cls-8" d="m267.81,236.44c.29,0,.53.24.53.53s-.24.52-.53.52-.52-.23-.52-.52.23-.53.52-.53Z"/>
            <path class="cls-8" d="m268.59,235.69c0-.97.81-1.75,1.78-1.76.42,0,.81.15,1.11.39.16.13.19.36.08.52-.14.17-.36.2-.53.07-.18-.13-.41-.22-.66-.22-.57,0-1.04.47-1.04,1.01s.47,1,1.04,1c.25,0,.48-.09.66-.22.15-.12.38-.09.53.08.11.15.08.38-.08.52-.3.22-.69.37-1.11.37-.97,0-1.78-.78-1.78-1.74Z"/>
            <path class="cls-8" d="m273.05,236.92c-.3-.31-.48-.74-.48-1.23s.18-.89.48-1.23c.32-.33.72-.53,1.2-.53s.88.2,1.17.53c.32.34.49.75.49,1.23s-.17.92-.49,1.23c-.29.33-.71.53-1.17.53s-.89-.2-1.2-.53Zm.28-1.23c0,.3.09.55.25.74.17.17.41.26.67.26.25,0,.47-.09.64-.26.18-.2.27-.44.27-.74s-.1-.54-.27-.73c-.17-.15-.4-.27-.64-.27-.27,0-.5.11-.67.27-.16.19-.25.44-.25.73Z"/>
            <path class="cls-8" d="m280.03,235.38v1.68c0,.2-.17.37-.37.37s-.38-.17-.38-.37v-1.68c0-.39-.33-.7-.72-.7s-.71.32-.71.72v1.66s0,.04,0,.05v.02s0,.03-.02.04v.04c-.06.13-.2.22-.35.22-.03,0-.05,0-.07,0-.17-.04-.3-.18-.3-.36v-1.66h0v-1.09c0-.22.17-.38.37-.38.15,0,.28.08.34.21.22-.13.48-.21.75-.21.44,0,.83.18,1.1.48.26-.3.66-.48,1.1-.48.8,0,1.46.66,1.46,1.47v1.66c0,.2-.17.37-.37.37s-.38-.17-.38-.37v-1.66c0-.4-.32-.72-.71-.72s-.71.31-.73.7Z"/>
          </g>
        </g>
        <g>
          <polygon class="cls-12" points="206.74 191.38 221.81 191.26 236.88 191.21 267.02 191.13 297.16 191.21 312.24 191.26 327.31 191.38 312.24 191.5 297.16 191.55 267.02 191.63 236.88 191.54 221.81 191.5 206.74 191.38"/>
          <polygon class="cls-12" points="217.86 198.06 230.15 197.94 242.44 197.89 267.02 197.81 291.6 197.89 303.89 197.94 316.18 198.06 303.89 198.18 291.6 198.23 267.02 198.31 242.44 198.22 230.15 198.18 217.86 198.06"/>
        </g>
        <polygon class="cls-10" points="200.73 263.17 217.3 263.05 233.88 263.01 267.02 262.92 300.17 263.01 316.74 263.05 333.31 263.17 316.74 263.3 300.17 263.34 267.02 263.42 233.88 263.34 217.3 263.3 200.73 263.17"/>
        <g>
          <rect class="cls-11" x="215.15" y="280.55" width="103.75" height="16.11"/>
          <g>
            <path class="cls-1" d="m236.62,290.08c0-.46-.23-.75-.51-.95-.28-.2-.61-.3-.73-.31-.03,0-.04-.02-.04-.02h-1.53v2.49c0,.12-.1.22-.22.22-.12,0-.22-.1-.22-.22v-5.87c0-.11.09-.21.2-.22h1.8c.99,0,1.79.8,1.79,1.8,0,.72-.42,1.34-1.04,1.63.03.02.05.03.09.04.41.23.85.69.85,1.4,0,.37.04.59.08.73.04.11.08.14.09.15.1,0,.21.04.24.14.03.12-.03.24-.14.29,0,0-.05,0-.11,0h-.02c-.12,0-.31-.09-.41-.29-.11-.21-.17-.5-.17-1.04Zm-1.26-4.44h-1.56v2.72h1.59c.73-.02,1.32-.62,1.32-1.36s-.61-1.36-1.36-1.36Z"/>
            <path class="cls-1" d="m238.61,289.31c0-1.22.95-2.21,2.14-2.21s2.03.9,2.12,2.05h0v.04c0,.12-.1.2-.22.2h-3.62c.04.96.8,1.69,1.71,1.69.58,0,1.12-.31,1.42-.8.06-.11.2-.13.29-.07.1.07.14.2.07.31-.38.6-1.04,1-1.78,1-1.19,0-2.14-.99-2.14-2.2Zm.46-.35h3.34c-.14-.83-.85-1.43-1.66-1.43s-1.52.59-1.68,1.43Z"/>
            <path class="cls-1" d="m244.09,290.59c.07-.09.21-.11.31-.03.31.22.79.51,1.35.51.34,0,.64-.11.84-.27.22-.14.33-.34.33-.54,0-.21-.09-.35-.32-.54-.19-.14-.5-.25-.94-.32h-.02c-.4-.08-.75-.17-1-.35-.28-.16-.48-.45-.48-.79s.2-.66.48-.86c.26-.18.63-.3,1.08-.3.57,0,.97.26,1.31.48.1.07.13.21.06.31-.06.1-.2.13-.3.06-.32-.22-.65-.44-1.08-.44-.36,0-.65.1-.84.25-.18.14-.28.32-.28.5s.08.31.25.44c.2.13.5.24.9.31h.02c.42.06.77.19,1.07.36.29.19.5.53.5.9s-.21.67-.5.89c-.31.23-.67.35-1.1.35-.71,0-1.27-.34-1.63-.63-.09-.08-.1-.2-.03-.29Z"/>
            <path class="cls-1" d="m248.51,289.31c0-1.22.95-2.21,2.14-2.21s2.03.9,2.12,2.05h0v.04c0,.12-.1.2-.22.2h-3.62c.04.96.8,1.69,1.71,1.69.58,0,1.12-.31,1.42-.8.06-.11.2-.13.29-.07.1.07.14.2.07.31-.38.6-1.04,1-1.78,1-1.19,0-2.14-.99-2.14-2.2Zm.46-.35h3.34c-.14-.83-.85-1.43-1.66-1.43s-1.52.59-1.68,1.43Z"/>
            <path class="cls-1" d="m255.49,287.31c0,.11-.11.22-.22.22h-.57v3.21c0,.22.22.32.32.32s.22.12.22.23-.12.22-.22.22c-.44,0-.77-.32-.77-.77v-3.21h-.55c-.22,0-.22-.11-.22-.22s0-.22.22-.22h.55v-1.64c0-.11.11-.22.22-.22.12,0,.23.11.23.22v1.64h.57c.11,0,.22.11.22.22Z"/>
            <path class="cls-1" d="m260.35,285.42c0-.12.1-.22.22-.22h1.78c.99,0,1.79.81,1.79,1.8s-.8,1.79-1.79,1.79l-1.56.02v2.48c0,.12-.1.22-.22.22-.12,0-.22-.1-.22-.22v-5.87Zm2,2.95c.75,0,1.36-.62,1.36-1.37s-.61-1.36-1.36-1.36h-1.56v2.73h1.56Z"/>
            <path class="cls-1" d="m269.2,287.31v3.98c0,.12-.1.22-.22.22s-.22-.1-.22-.22v-.66c-.38.52-.98.87-1.66.87-1.16,0-2.09-1-2.09-2.21s.93-2.2,2.09-2.2c.68,0,1.28.34,1.66.86v-.65c0-.13.1-.22.22-.22s.22.09.22.22Zm-.43,1.99c0-.99-.75-1.78-1.66-1.78s-1.66.79-1.66,1.78.76,1.77,1.66,1.77,1.66-.78,1.66-1.77Z"/>
            <path class="cls-1" d="m270.76,290.59c.07-.09.21-.11.31-.03.31.22.79.51,1.35.51.34,0,.64-.11.84-.27.22-.14.33-.34.33-.54,0-.21-.09-.35-.32-.54-.19-.14-.5-.25-.94-.32h-.02c-.4-.08-.75-.17-1-.35-.28-.16-.48-.45-.48-.79s.2-.66.48-.86c.26-.18.63-.3,1.08-.3.57,0,.97.26,1.31.48.1.07.13.21.06.31-.06.1-.2.13-.3.06-.32-.22-.65-.44-1.08-.44-.36,0-.65.1-.84.25-.18.14-.28.32-.28.5s.08.31.25.44c.2.13.5.24.9.31h.02c.42.06.77.19,1.07.36.29.19.5.53.5.9s-.21.67-.5.89c-.31.23-.67.35-1.1.35-.71,0-1.27-.34-1.63-.63-.09-.08-.1-.2-.03-.29Z"/>
            <path class="cls-1" d="m275.1,290.59c.07-.09.21-.11.31-.03.31.22.79.51,1.35.51.34,0,.64-.11.84-.27.22-.14.33-.34.33-.54,0-.21-.09-.35-.32-.54-.19-.14-.5-.25-.94-.32h-.02c-.4-.08-.75-.17-1-.35-.28-.16-.48-.45-.48-.79s.2-.66.48-.86c.26-.18.63-.3,1.08-.3.57,0,.97.26,1.31.48.1.07.13.21.06.31-.06.1-.2.13-.3.06-.32-.22-.65-.44-1.08-.44-.36,0-.65.1-.84.25-.18.14-.28.32-.28.5s.08.31.25.44c.2.13.5.24.9.31h.02c.42.06.77.19,1.07.36.29.19.5.53.5.9s-.21.67-.5.89c-.31.23-.67.35-1.1.35-.71,0-1.27-.34-1.63-.63-.09-.08-.1-.2-.03-.29Z"/>
            <path class="cls-1" d="m281.17,291.47s-.07-.05-.09-.1l-1.66-3.94c-.04-.11,0-.23.11-.28.11-.05.24,0,.28.12l1.47,3.47,1.02-2.42c.04-.08.13-.14.21-.14.09,0,.18.05.22.14l1.02,2.42,1.46-3.47c.04-.11.18-.16.28-.12.11.04.16.17.12.28l-1.65,3.92s-.05.08-.08.11c-.04.03-.07.04-.11.04h-.04c-.07,0-.15-.06-.17-.13h0s-1.03-2.45-1.03-2.45l-1.02,2.43s0,0,0,.02c-.03.08-.12.13-.19.13-.03,0-.05,0-.08-.02-.02,0-.03,0-.04-.02Z"/>
            <path class="cls-1" d="m289.1,287.09c1.16,0,2.09,1.01,2.09,2.2s-.93,2.21-2.09,2.21-2.09-1.01-2.09-2.21.94-2.2,2.09-2.2Zm0,3.98c.9,0,1.66-.79,1.66-1.77s-.76-1.78-1.66-1.78-1.66.8-1.66,1.78.76,1.77,1.66,1.77Z"/>
            <path class="cls-1" d="m292.67,287.32c0-.13.1-.22.23-.22.11,0,.21.09.21.22v.97s.04-.07.06-.11c.33-.52.92-1.08,1.76-1.08.12,0,.22.09.22.22,0,.12-.1.22-.22.22-.58,0-.97.32-1.28.72-.3.4-.47.85-.53,1.03-.02.04-.02.05-.02.07v1.94c0,.13-.1.22-.21.22-.13,0-.23-.09-.23-.22v-3.97Z"/>
            <path class="cls-1" d="m299.92,290.65c-.39.52-1,.86-1.69.86-1.19,0-2.13-.99-2.13-2.2s.95-2.21,2.13-2.21c.69,0,1.31.34,1.69.86v-2.54c0-.12.1-.22.23-.22.12,0,.22.1.22.22v5.87c0,.12-.1.22-.22.22-.13,0-.23-.1-.23-.22v-.64Zm0-1.27v-.14c-.04-.95-.78-1.7-1.69-1.7s-1.69.79-1.69,1.77.76,1.75,1.69,1.75,1.66-.75,1.69-1.68Z"/>
          </g>
        </g>
        <g>
          <circle class="cls-4" cx="294.14" cy="114.56" r="23.17"/>
          <circle class="cls-10" cx="232.56" cy="147.98" r="15.83"/>
          <g>
            <g>
              <path class="cls-8" d="m280.02,110.24v16.62h-4.7v-16.62c0-6.32-4.8-11.46-10.7-11.46s-10.7,5.14-10.7,11.46v16.62h-4.7v-16.62c0-9.05,6.91-16.41,15.4-16.41s15.4,7.36,15.4,16.41Z"/>
              <polygon class="cls-5" points="249.21 114.56 253.91 114.75 253.91 126.86 249.21 126.86 249.21 114.56"/>
              <polygon class="cls-5" points="280.02 115.81 280.02 126.86 275.32 126.86 275.32 115.62 280.02 115.81"/>
            </g>
            <rect class="cls-11" x="243.2" y="117.4" width="42.84" height="38.86"/>
            <rect class="cls-9" x="264.62" y="117.4" width="21.42" height="38.86"/>
            <path class="cls-12" d="m266.43,138.25l1.79,8.51h-7.61l1.79-8.51c-1.07-.68-1.79-1.86-1.79-3.21,0-2.12,1.71-3.81,3.81-3.81s3.81,1.68,3.81,3.81c0,1.36-.72,2.54-1.79,3.21Z"/>
          </g>
        </g>
        <g>
          <path class="cls-2" d="m255.44,334.24c0,1.4-1.13,2.53-2.53,2.53s-2.53-1.13-2.53-2.53,1.13-2.53,2.53-2.53,2.53,1.13,2.53,2.53Z"/>
          <path class="cls-8" d="m270.85,334.24c0,2.12-1.71,3.83-3.83,3.83s-3.83-1.72-3.83-3.83,1.72-3.83,3.83-3.83,3.83,1.72,3.83,3.83Z"/>
          <path class="cls-2" d="m283.67,334.24c0,1.4-1.13,2.53-2.53,2.53s-2.53-1.13-2.53-2.53,1.13-2.53,2.53-2.53,2.53,1.13,2.53,2.53Z"/>
        </g>
        <g>
          <path class="cls-12" d="m228.57,179.26v-5.31c0-.27.22-.5.5-.5h2.94c.26,0,.5.23.5.5s-.23.5-.5.5h-2.44v1.65h2.1c.27,0,.5.23.5.5,0,.28-.22.5-.5.5h-2.1v2.16c0,.27-.22.5-.5.5s-.5-.23-.5-.5Z"/>
          <path class="cls-12" d="m233.68,179.1c-.39-.4-.62-.95-.62-1.58s.23-1.14.62-1.58c.41-.42.93-.68,1.55-.68s1.13.26,1.5.68c.41.43.63.96.63,1.58s-.22,1.19-.63,1.58c-.37.42-.91.68-1.5.68s-1.14-.26-1.55-.68Zm.36-1.58c0,.39.12.7.32.95.23.22.52.33.86.33.32,0,.6-.12.83-.33.23-.25.35-.57.35-.95s-.13-.69-.35-.94c-.22-.2-.51-.34-.83-.34-.34,0-.64.14-.86.34-.21.24-.32.57-.32.94Z"/>
          <path class="cls-12" d="m241.48,175.73c0,.25-.21.48-.48.48-.21,0-.39.05-.54.17-.17.11-.31.26-.41.43-.22.29-.32.63-.37.76v1.71c0,.26-.23.48-.5.48s-.48-.22-.48-.48v-3.55c0-.26.22-.47.48-.47s.5.21.5.47v.06c.05-.06.13-.14.19-.18.3-.2.68-.36,1.13-.35.27,0,.48.21.48.47Z"/>
          <path class="cls-12" d="m246.68,177.54v1.67c0,1.18-.96,2.16-2.16,2.16-.33,0-.67-.08-.95-.23-.23-.11-.34-.4-.22-.65.12-.24.4-.33.65-.23.15.08.32.13.51.13.59,0,1.06-.41,1.18-.96-.32.23-.74.36-1.18.36-.59,0-1.14-.26-1.53-.68-.39-.4-.63-.95-.63-1.58s.24-1.18.63-1.6c.39-.41.94-.67,1.53-.67.47,0,.88.14,1.21.38.04-.22.24-.38.48-.38.27,0,.48.22.48.48v1.79h0Zm-.96,0c0-.36-.14-.7-.34-.92-.23-.25-.51-.39-.86-.39-.31,0-.61.14-.83.39-.22.22-.36.56-.36.92s.14.72.36.93c.22.24.51.37.83.37.34,0,.62-.13.86-.37.2-.21.34-.55.34-.93Z"/>
          <path class="cls-12" d="m249.01,179.1c-.39-.4-.62-.95-.62-1.58s.23-1.14.62-1.58c.41-.42.93-.68,1.55-.68s1.13.26,1.5.68c.41.43.63.96.63,1.58s-.22,1.19-.63,1.58c-.37.42-.91.68-1.5.68s-1.14-.26-1.55-.68Zm.36-1.58c0,.39.12.7.32.95.23.22.52.33.86.33.32,0,.6-.12.83-.33.23-.25.35-.57.35-.95s-.13-.69-.35-.94c-.22-.2-.51-.34-.83-.34-.34,0-.64.14-.86.34-.21.24-.32.57-.32.94Z"/>
          <path class="cls-12" d="m256.08,175.75c0,.27-.23.5-.5.5h-.23v2.51c.28,0,.5.23.5.5s-.22.5-.5.5c-.55,0-1-.45-1-1v-2.51h-.26c-.28,0-.5-.23-.5-.5s.22-.5.5-.5h.26v-1.31c0-.28.22-.5.5-.5s.5.22.5.5v1.31h.23c.27,0,.5.22.5.5Z"/>
          <path class="cls-12" d="m262.56,177.31h-1.11v1.95c0,.27-.22.5-.5.5s-.5-.23-.5-.5v-5.31c0-.28.22-.5.5-.5h1.61c1.07,0,1.94.86,1.94,1.94s-.86,1.92-1.94,1.92Zm-1.11-1h1.11c.52,0,.93-.41.94-.92,0-.52-.41-.94-.94-.94h-1.11v1.85Z"/>
          <path class="cls-12" d="m269.41,177.52v1.76c0,.26-.22.48-.48.48-.23,0-.41-.17-.47-.39-.34.24-.75.39-1.2.39-.61,0-1.14-.25-1.53-.66-.39-.41-.61-.97-.61-1.58s.22-1.18.61-1.58c.39-.41.92-.68,1.53-.68.45,0,.85.15,1.2.4.05-.22.23-.4.47-.4.26,0,.48.22.48.49v1.77Zm-.96,0c0-.38-.13-.7-.35-.93-.22-.24-.52-.37-.84-.37s-.63.13-.84.37c-.22.23-.34.55-.34.93s.13.69.34.93c.21.23.51.35.84.35s.62-.13.84-.35c.22-.23.35-.56.35-.93Z"/>
          <path class="cls-12" d="m270.96,178.47c.16-.22.48-.24.67-.07.23.2.64.41.99.4.24,0,.47-.08.61-.17.13-.11.16-.2.16-.27,0-.04,0-.06-.03-.09,0-.03-.04-.06-.12-.11-.13-.09-.4-.19-.72-.25h0c-.28-.05-.55-.13-.78-.23-.24-.12-.46-.28-.62-.52-.1-.16-.15-.36-.15-.57,0-.41.23-.77.53-.99.32-.22.69-.33,1.11-.33.62,0,1.06.3,1.35.5.22.14.28.44.14.67-.14.22-.44.28-.67.13-.29-.19-.54-.33-.83-.33-.22,0-.42.07-.54.16-.12.08-.14.16-.14.21,0,.04,0,.04.02.07,0,.02.04.05.1.09.12.08.35.16.66.22h0s0,0,0,0c.3.05.58.14.84.26.24.11.49.28.64.53.11.18.17.39.17.59,0,.44-.24.81-.57,1.04-.32.23-.73.36-1.17.36-.7,0-1.24-.33-1.6-.62-.2-.16-.23-.47-.06-.67Z"/>
          <path class="cls-12" d="m275.29,178.47c.16-.22.48-.24.67-.07.23.2.64.41.99.4.24,0,.47-.08.61-.17.13-.11.16-.2.16-.27,0-.04,0-.06-.03-.09,0-.03-.04-.06-.12-.11-.13-.09-.4-.19-.72-.25h0c-.28-.05-.55-.13-.78-.23-.24-.12-.46-.28-.62-.52-.1-.16-.15-.36-.15-.57,0-.41.23-.77.53-.99.32-.22.69-.33,1.11-.33.62,0,1.06.3,1.35.5.22.14.28.44.14.67-.14.22-.44.28-.67.13-.29-.19-.54-.33-.83-.33-.22,0-.42.07-.54.16-.12.08-.14.16-.14.21,0,.04,0,.04.02.07,0,.02.04.05.1.09.12.08.35.16.66.22h0s0,0,0,0c.3.05.58.14.84.26.24.11.49.28.64.53.11.18.17.39.17.59,0,.44-.24.81-.57,1.04-.32.23-.73.36-1.17.36-.7,0-1.24-.33-1.6-.62-.2-.16-.23-.47-.06-.67Z"/>
          <path class="cls-12" d="m285.59,175.98l-1.49,3.49s-.02.04-.04.07c0,0,0,0,0,0,0,.02-.03.04-.04.05,0,0-.02,0-.02,0-.02.02-.04.04-.05.04,0,0,0,0,0,.02-.03.02-.04.04-.08.05,0,0,0,0,0,0-.02,0-.05,0-.07.02h-.02s-.05,0-.09,0c-.03,0-.05,0-.08,0h-.02s-.04-.02-.06-.02h-.02s-.05-.04-.08-.06h0s-.04-.04-.05-.05c0,0-.02,0-.02,0-.02-.02-.04-.04-.04-.05,0,0,0,0,0,0-.02-.03-.03-.05-.04-.07l-.66-1.56-.64,1.56s-.03.04-.04.07h0s-.04.04-.05.06c0,0,0,0,0,0-.02.02-.04.04-.05.05-.04.03-.05.04-.08.05h-.02s0,0,0,0c-.02,0-.04,0-.05.02h-.02s-.06,0-.09,0c-.04,0-.06,0-.09,0h-.03s-.04-.02-.05-.02t-.02,0s-.06-.03-.08-.05t0,0s-.03-.03-.05-.04h-.02s-.03-.05-.04-.06t0,0s-.03-.05-.04-.07l-1.48-3.49c-.11-.24,0-.51.26-.62.22-.1.5,0,.59.27l1.06,2.42.63-1.5c.08-.18.25-.29.44-.29s.37.11.44.29l.64,1.5,1.06-2.42c.09-.26.38-.37.6-.27.24.11.37.38.26.62Z"/>
          <path class="cls-12" d="m287.74,179.1c-.39-.4-.62-.95-.62-1.58s.23-1.14.62-1.58c.41-.42.93-.68,1.55-.68s1.13.26,1.5.68c.4.43.63.96.63,1.58s-.23,1.19-.63,1.58c-.37.42-.91.68-1.5.68s-1.14-.26-1.55-.68Zm.36-1.58c0,.39.12.7.32.95.23.22.52.33.86.33.32,0,.6-.12.83-.33.23-.25.35-.57.35-.95s-.13-.69-.35-.94c-.22-.2-.51-.34-.83-.34-.34,0-.64.14-.86.34-.21.24-.32.57-.32.94Z"/>
          <path class="cls-12" d="m295.54,175.73c0,.25-.21.48-.48.48-.21,0-.39.05-.54.17-.17.11-.31.26-.41.43-.22.29-.32.63-.37.76v1.71c0,.26-.22.48-.5.48s-.48-.22-.48-.48v-3.55c0-.26.22-.47.48-.47s.5.21.5.47v.06c.05-.06.13-.14.19-.18.3-.2.68-.36,1.13-.35.27,0,.48.21.48.47Z"/>
          <path class="cls-12" d="m300.58,179.27c0,.26-.22.49-.49.49-.24,0-.43-.17-.48-.39-.34.23-.77.39-1.22.39-1.21,0-2.19-1.03-2.19-2.24s.97-2.26,2.19-2.26c.44,0,.87.14,1.21.38v-1.69c0-.26.22-.49.5-.49s.49.23.49.49v3.57h0v1.76Zm-2.19-3.03c-.32,0-.62.14-.85.37-.23.23-.36.55-.36.91s.13.67.36.89c.22.23.52.37.85.37s.62-.13.85-.37c.22-.23.36-.55.36-.89,0-.36-.14-.68-.36-.91-.23-.23-.51-.37-.85-.37Z"/>
          <path class="cls-12" d="m304.13,177.18v.59c0,.25-.19.44-.44.44-.23,0-.44-.19-.44-.44v-.94s0,0,0-.02t0-.02c0-.23.21-.44.44-.44.57,0,1.03-.45,1.03-1.01s-.46-1.01-1.03-1.01c-.37,0-.69.2-.86.5-.13.22-.4.29-.61.16-.21-.13-.28-.39-.15-.6.32-.56.94-.94,1.63-.94,1.04,0,1.9.85,1.9,1.89,0,.89-.62,1.64-1.46,1.84Zm0,1.97v.16c0,.25-.19.44-.44.44-.23,0-.44-.19-.44-.44v-.16c0-.24.21-.44.44-.44.25,0,.44.2.44.44Z"/>
        </g>
      </g>
    </g>
  </g>
  <g id="Character">
    <g>
      <g>
        <g>
          <polygon class="cls-2" points="122.22 282.35 124.59 296.58 140.67 383.4 143.26 383.4 131.57 296.58 129.84 282.35 122.22 282.35"/>
          <polygon class="cls-5" points="129.84 282.35 122.22 282.35 124.59 296.58 131.57 296.58 129.84 282.35"/>
        </g>
        <g>
          <polygon class="cls-2" points="71.74 383.4 74.33 383.4 90.4 296.58 92.78 282.35 85.15 282.35 83.43 296.58 71.74 383.4"/>
          <polygon class="cls-5" points="85.15 282.35 83.43 296.58 90.4 296.58 92.78 282.35 85.15 282.35"/>
        </g>
        <g>
          <polygon class="cls-2" points="23.52 383.4 26.11 383.4 42.18 296.58 44.56 282.35 36.93 282.35 35.21 296.58 23.52 383.4"/>
          <polygon class="cls-5" points="35.21 296.58 42.18 296.58 44.56 282.35 36.93 282.35 35.21 296.58"/>
        </g>
        <polygon class="cls-2" points="27.63 289.03 145.43 289.03 145.43 276.62 101.33 276.62 86.51 211.97 32.12 211.97 27.63 289.03"/>
        <polygon class="cls-5" points="27.63 289.03 34.05 289.03 38.23 211.97 32.12 211.97 27.63 289.03"/>
      </g>
      <g>
        <g>
          <g>
            <g>
              <g>
                <path class="cls-7" d="m144.52,394.39c-2.22.28-62.87-13.87-64.84-15.78-.24-.21,1.9-11.94,1.9-11.94.95-4.79,17.48-43.82,17.48-43.82l39.65,9.78-16.8,36.26s7.56,5.12,14.06,9.99c0,.01.02.01.01.02,4.01,2.99,7.47,5.69,8.22,6.57,1.93,2.31,2.55,8.66.33,8.92Z"/>
                <path class="cls-10" d="m79.68,378.6c1.97,1.91,62.63,16.06,64.85,15.78,2.22-.26,1.59-6.61-.33-8.92-.75-.88-4.21-3.58-8.22-6.57,0-.01,0-.01-.02-.02-6.49-4.88-14.05-10-14.05-10l3.74-8.08-38.42-9.36c-2.91,7.25-5.3,13.49-5.65,15.23,0,0-2.14,11.73-1.9,11.94Z"/>
              </g>
              <g>
                <path class="cls-11" d="m144.7,394.56c-2.3.24-63.44-13.46-65.43-15.46-.77-.75.71-9.76,2.81-20.6.02-.11.05-.23.07-.34l39.54,8.4-.17.67s21.05,15.7,23.02,18.13c1.94,2.42,2.45,8.98.16,9.21Z"/>
                <g>
                  <path class="cls-12" d="m144.54,392.04c-10.25-2.56-51.83-11.93-62.16-13.69-.08-.01-.1.04-.01.06,10.1,2.76,51.76,11.8,62.14,13.79.22.04.25-.11.04-.17Z"/>
                  <path class="cls-12" d="m126.05,367.66c-3.89-1.66-8.99-2.15-12.73.04-.15.08-.02.29.12.28,4.28-.36,8.2-.33,12.48.19.3.04.41-.39.13-.51Z"/>
                  <path class="cls-12" d="m128.59,370.07c-3.89-1.67-8.99-2.16-12.73.04-.15.08-.02.29.12.28,4.28-.36,8.2-.33,12.48.19.3.04.41-.39.13-.51Z"/>
                  <path class="cls-12" d="m131.12,372.49c-3.89-1.66-8.99-2.15-12.73.04-.15.08-.02.29.12.28,4.28-.36,8.2-.33,12.48.19.3.04.41-.39.13-.51Z"/>
                  <g>
                    <path class="cls-12" d="m133.31,360.01c-1.1-2.55-4.29-2.23-6.3-1.19-3.26,1.69-6.47,4.74-8.33,7.88-.05.08,0,.14.06.17-.06.31.15.7.52.65,3.63-.49,7.57-.56,10.93-2.15,1.97-.93,4.16-2.95,3.11-5.36Zm-8.7,5.64c-1.78.28-3.56.48-5.33.83,1.63-1.53,3.18-3.13,4.97-4.49.85-.65,1.74-1.31,2.67-1.84,1.45-.83,6.75-2.09,5.04,2.19-.94,2.36-5.23,2.97-7.35,3.31Z"/>
                    <path class="cls-12" d="m108.61,363.33c3.02,2.17,6.88,2.96,10.36,4.1.36.12.63-.23.63-.54.07-.02.12-.07.09-.15-1.26-3.42-3.86-7.01-6.75-9.26-1.79-1.39-4.87-2.29-6.41.02-1.46,2.18.32,4.57,2.08,5.84Zm-1.18-3.3c-.9-4.52,4.08-2.32,5.36-1.24.82.69,1.57,1.5,2.29,2.29,1.5,1.67,2.74,3.52,4.06,5.32-1.67-.67-3.39-1.18-5.09-1.78-2.02-.72-6.13-2.1-6.62-4.59Z"/>
                  </g>
                </g>
                <path class="cls-6" d="m126.87,391.04c9.61,2.1,17.06,3.6,17.83,3.52,2.3-.23,1.79-6.79-.16-9.21-.73-.9-4.07-3.62-8-6.7l-9.67,12.39Z"/>
              </g>
            </g>
            <g>
              <path class="cls-3" d="m124.55,367.54l-42.09-9.92s35.13-80.51,32.04-84.6c-1.54-2.05-40.73-2.65-53.19-13.21-16.19-13.72-5.33-34.67-5.33-34.67l43.76-1.3s-.53,9.14,1.18,10.52c1.13.92,53.27,5.3,59,22.87,7.02,21.55-35.37,110.31-35.37,110.31Z"/>
              <path class="cls-12" d="m124.54,361.03c-1.1-.52-12-3.72-14.45-4.34-4.93-1.26-9.86-2.5-14.82-3.63-2.58-.59-8.12-1.88-8.46-1.82-.16.03-.19.3-.05.35,4.8,1.58,9.67,2.92,14.54,4.28,4.86,1.35,21.64,5.39,23.11,5.49.14,0,.27-.26.12-.34Z"/>
              <path class="cls-12" d="m121.99,269.39c-.88-.75-2.2-.84-3.3-1.03-6.32-1.06-12.63-2.12-18.95-3.18-5.91-.99-11.85-1.87-17.74-3.01-4.87-.94-9.83-2.21-14.04-4.85-4.22-2.64-7.14-6.62-8.61-11.25-1.47-4.64-1.58-9.62-1.11-14.42.11-1.17.33-2.35.55-3.51.02-.09-.12-.12-.14-.03-1.6,8.96-1.75,19.37,4.98,26.51,3.28,3.48,7.78,5.53,12.37,6.85,5.18,1.5,10.6,2.2,15.92,3.09,6.32,1.06,12.64,2.11,18.95,3.16,3.04.5,6.13.9,9.14,1.53.58.12,1.23.29,1.65.73.57.6.42,1.46.27,2.19-.3,1.49-.71,2.96-1.13,4.42-3.45,11.77-28.91,71.8-29.59,73.09-.07.14.14.24.22.11,5.8-10.32,24.84-57.57,28.67-68.7.98-2.84,1.88-5.72,2.48-8.66.22-1.06.34-2.25-.58-3.04Z"/>
            </g>
          </g>
          <g>
            <g>
              <g>
                <path class="cls-7" d="m207.13,397.04c-2.12.71-62.83-.14-65.14-1.62-2.53-2.41-3.6-59.68-3.6-59.68l39.05-.32,2.43,41.12s8.43,3.51,15.77,7c0,0,.02,0,.02.02,4.53,2.14,8.46,4.09,9.36,4.81,2.35,1.88,4.23,7.98,2.1,8.68Z"/>
                <path class="cls-10" d="m139.45,369.61c.58,12.87,1.41,24.74,2.54,25.8,2.31,1.48,63.02,2.34,65.14,1.62,2.12-.69.25-6.79-2.1-8.67-.91-.72-4.84-2.67-9.37-4.81t0-.02c-7.34-3.49-15.77-7-15.77-7l-.41-6.92h-40.02Z"/>
              </g>
              <g>
                <path class="cls-11" d="m208.37,397.08c-2.19.73-64.85.43-67.23-1.1-.91-.56-1.4-9.68-1.67-20.72,0-.12,0-.23,0-.35l40.43-.26-.02.69s23.93,10.83,26.37,12.78c2.42,1.95,4.32,8.24,2.13,8.96Z"/>
                <g>
                  <path class="cls-12" d="m207.67,394.65c-10.56-.31-53.19-.56-63.65-.07-.09,0-.09.06,0,.07,10.46.54,53.09.44,63.65.17.22,0,.22-.17,0-.17Z"/>
                  <path class="cls-12" d="m184.39,374.79c-4.15-.79-9.24-.18-12.43,2.76-.12.11.04.29.18.25,4.11-1.27,7.94-2.08,12.24-2.48.3-.03.32-.47.02-.52Z"/>
                  <path class="cls-12" d="m187.38,376.61c-4.15-.79-9.24-.18-12.43,2.76-.12.11.04.29.18.25,4.11-1.27,7.94-2.08,12.24-2.48.3-.03.32-.47.02-.52Z"/>
                  <path class="cls-12" d="m190.37,378.43c-4.15-.79-9.24-.18-12.43,2.76-.12.11.04.29.18.25,4.11-1.27,7.94-2.08,12.24-2.48.3-.03.32-.47.02-.52Z"/>
                  <g>
                    <path class="cls-12" d="m189.84,365.76c-1.62-2.25-4.67-1.26-6.41.19-2.82,2.34-5.3,6.02-6.45,9.48-.03.09.03.14.1.15.01.32.29.65.65.52,3.44-1.25,7.27-2.17,10.22-4.44,1.72-1.32,3.43-3.77,1.89-5.9Zm-7.29,7.37c-1.68.66-3.37,1.23-5.03,1.95,1.26-1.85,2.44-3.74,3.89-5.45.69-.82,1.42-1.65,2.21-2.37,1.24-1.12,6.15-3.49,5.39,1.06-.42,2.51-4.47,4.02-6.47,4.81Z"/>
                    <path class="cls-12" d="m166.42,374.3c3.42,1.47,7.36,1.42,11,1.79.38.04.57-.36.5-.67.06-.03.11-.09.06-.17-1.97-3.07-5.27-6.02-8.58-7.6-2.05-.98-5.24-1.19-6.26,1.39-.96,2.44,1.29,4.4,3.29,5.26Zm-1.86-2.97c-1.85-4.23,3.49-3.14,4.97-2.36.95.5,1.86,1.13,2.73,1.75,1.83,1.31,3.43,2.85,5.11,4.33-1.78-.29-3.56-.43-5.35-.65-2.13-.27-6.43-.74-7.46-3.07Z"/>
                  </g>
                </g>
              </g>
            </g>
            <g>
              <path class="cls-3" d="m182.05,375.13h-44.05s.56-79.46-2.89-83.86c-4.6-5.88-69-5.74-82.81-24.91-12.4-17.21-1.93-41.58-1.93-41.58l48.77-1.45s-1.52,7.73-4.52,15.34c0,0,58.75,10.83,75.2,28.82,11.11,12.15,12.23,107.64,12.23,107.64Z"/>
              <g>
                <path class="cls-12" d="m103.19,235.33c-1.41.25-2.8.82-4.13,1.32-1.4.53-2.78,1.14-4.13,1.79-2.67,1.3-5.21,2.78-7.71,4.36-.08.05,0,.16.08.12,2.64-1.37,5.36-2.6,8.09-3.78,1.31-.57,2.63-1.13,3.94-1.69,1.32-.57,2.73-1.05,3.98-1.76.17-.09.07-.4-.12-.36Z"/>
                <path class="cls-12" d="m100.26,223.31c-.56,2.22-1.05,4.46-1.68,6.67-.29,1.01-.58,2.04-.96,3.02-.32.83-.81,1.77-1.77,1.96-1.11.21-1.42-.73-1.33-1.64.1-1.02.36-2.04.56-3.04.23-1.15.47-2.31.68-3.47.1-.58.21-1.16.31-1.74.02-.15.13-1.26.21-1.57,0,.03.03.05.06.05.01,0,.03,0,.04,0,.03,0,.06-.02.07-.06.01-.09.01-.11-.06-.17-.03-.03-.07-.02-.1,0-.21.12-.23.41-.29.62-.18.56-.36,1.12-.53,1.69-.31,1.06-.61,2.13-.88,3.2-.27,1.07-.53,2.14-.8,3.21-.2.8-.43,1.65-.21,2.47.24.9.96,1.35,1.75,1.42-.04.07-.08.14-.12.22-.1.22-.17.45-.25.68-.08.23-.16.46-.23.7-.03.11-.05.23-.06.34-.01.13.01.25,0,.38-.03.2.24.32.35.12.06-.11.14-.2.21-.31.07-.11.12-.25.16-.37.08-.22.14-.44.2-.67.06-.22.13-.45.17-.68.02-.14.03-.27.04-.41.45-.05.9-.2,1.28-.49.66-.5,1.05-1.27,1.33-2.03.34-.93.6-1.88.86-2.83.64-2.35,1.19-4.73,1.42-7.16.02-.26-.34-.35-.4-.09Z"/>
                <path class="cls-12" d="m71.26,228.75c-.2,1.1-.33,2.22-.58,3.31-.25,1.07-.54,2.14-.89,3.18-.34,1-.75,2-1.36,2.87-.59.84-1.36,1.56-2.16,2.2-1.57,1.24-3.34,2.23-5.23,2.91-.95.34-1.92.63-2.9.85-.51.12-1.03.2-1.55.27-.43.06-.86.07-1.25.29-.17.09-.14.35.02.43.67.33,1.6.15,2.31.07.83-.09,1.66-.23,2.47-.43,1.63-.42,3.22-1.1,4.67-1.97,1.42-.85,2.85-1.9,3.9-3.19,1.09-1.34,1.7-2.91,2.09-4.57.47-1.99.79-4.16.68-6.21,0-.12-.19-.14-.21-.02Z"/>
                <path class="cls-12" d="m144.34,320c-.43-6.91-1.01-13.82-1.73-20.71-.18-1.7-.35-3.4-.56-5.1-.16-1.31-.37-2.64-.86-3.87-1.01-2.59-3.17-3.9-5.78-4.56-3.08-.78-6.27-1.24-9.4-1.75-3.2-.52-6.42-.98-9.63-1.43-6.51-.91-13.03-1.74-19.52-2.83-6.45-1.09-12.88-2.42-19.15-4.31-5.76-1.74-11.67-3.89-16.28-7.88-9.92-8.59-10.29-22.99-9.07-35.04.17-1.7.38-3.4.59-5.09.01-.09-.13-.12-.14-.03-.79,6.78-1.7,13.61-1.02,20.44.55,5.58,2.19,11.19,5.43,15.83,3.36,4.81,8.34,7.92,13.71,10.09,5.87,2.37,12.08,3.96,18.27,5.26,12.87,2.69,26,3.83,38.95,6.05,1.6.27,3.19.56,4.78.87,1.46.28,2.95.55,4.31,1.15,2.94,1.31,3.75,4.17,4.12,7.13.85,6.86,1.42,13.77,1.92,20.66,1,13.9,1.53,27.86,1.51,41.8,0,1.72-.01,7.5-.03,9.22,0,.15.23.14.24-.01.42-13.95.24-31.96-.64-45.9Z"/>
                <path class="cls-12" d="m179.99,368.22c-10.05-.68-38.66-.41-38.98-.26-.15.07-.11.34.04.35,5.05.36,37.46.53,38.91.27.14-.03.2-.34.03-.36Z"/>
              </g>
              <path class="cls-12" d="m94.91,238.79c8.99.98,17.91,3,26.6,5.45,8.76,2.47,17.36,5.55,25.67,9.28,4.67,2.1,9.18,4.44,13.66,6.9.09.05,0,.18-.08.13-8.04-4.18-16.45-7.79-24.96-10.89-8.49-3.08-17.17-5.62-26-7.54-4.97-1.08-9.97-1.92-14.99-2.75-.33-.06-.24-.62.09-.59Z"/>
              <path class="cls-12" d="m137.82,309.03c-.32-4.79-.81-9.56-1.59-14.3-.32-1.91-.4-4.38-2.41-5.34-.94-.44-19.6-3.69-22.27-3.64-.12,0-.17.18-.06.23.24.11,17.98,3.47,20.23,4,.93.22,1.96.41,2.49,1.29.52.88.59,2.09.76,3.07,1.6,9.28,2.22,18.7,2.47,28.1.07,2.6.11,5.21.13,7.81.02,2.67-.09,5.38.11,8.05.02.29.41.27.44-.01.21-2.42.13-4.89.15-7.32.02-2.44.02-4.88,0-7.33-.03-4.88-.14-9.75-.46-14.62Z"/>
            </g>
          </g>
        </g>
        <g>
          <g>
            <path class="cls-7" d="m96.91,179.37c12.61,16.77,42.56,40.34,49.59,34.86,8.64-6.74,7.03-31.54,7.22-34.73.19-3.42-28.14-2.55-27,.93.67,2.06.99,4.27.45,4.06-1.67-.66-5.38-3.99-21.47-13.01-8.97-5.03-17.14-3.21-8.79,7.89Z"/>
            <g>
              <path class="cls-11" d="m122.72,180.33l-6.61,6.49-8.32,8.16s-9.47-9.18-13.57-16.75c-3.01-5.57-3.1-10.27-.11-11.3,1.08-.38,2.55-.28,4.43.42,10.73,4.02,24.18,12.97,24.18,12.97Z"/>
              <path class="cls-12" d="m118.88,178.63c-2.65,2.42-12.25,11.39-13.01,12.95-.02.03.07.12.11.11,1.56-.75,10.62-10.26,13.06-12.9.05-.05-.1-.2-.15-.15Z"/>
              <path class="cls-12" d="m116.11,186.82l-8.32,8.16s-9.47-9.18-13.57-16.75c-3.01-5.57-3.1-10.27-.11-11.3l22,19.88Z"/>
            </g>
            <g>
              <path class="cls-7" d="m153.73,164.32c1.6,5.43.53,17.83-.88,20.72-1.41,2.89-22.54,1.77-24.42-.94-1.88-2.71-5.86-21.43-3.67-26.78,2.19-5.35,27.3,1.37,28.96,7Z"/>
              <g>
                <path class="cls-7" d="m129.5,145.16c-.92-2.47-5.35-9.51-7.49-8.69-2.14.82-.24,6.39.61,8.63,1.74,4.61,1.69,11.43,1.61,14.73-.08,3.3,7.62.04,7.62.04,0,0,.03-8.33-2.35-14.71Z"/>
                <path class="cls-7" d="m126.38,164.48s-.3,5.82,2.79,7.02c2.98,1.15,4.17-3.45,4.26-3.78-.01.31-.15,5.66,3.08,6.55,3.36.92,3.76-3.9,3.78-4.22.08.29,1.19,4.17,3.79,4.29,4.48.2,1.92-9.79,3.91-12.84,0,0,5.54,2.77,5.72,2.81,0,0-2.24-9.55-6.5-12-2.24-1.29-3.89.55-3.89.55,0,0-.38-3.16-2.9-3.94-1.3-.4-3.08,1.32-3.08,1.32,0,0-.41-2.52-2.7-3.07-1.82-.45-3.59,1.31-4.03,2.09-3.46,5.99-4.24,15.21-4.24,15.21Z"/>
                <g>
                  <path class="cls-12" d="m131.04,148.78s-.04-.09-.07-.04c-3,4.55-4.91,10.47-4.67,15.95,0,.18.3.24.33.05.83-5.69,2.03-10.68,4.41-15.95Z"/>
                  <path class="cls-12" d="m137.35,150.17c.03-.06-.07-.1-.1-.04-3.07,4.7-5.03,11.43-4.01,17.71.04.22.28.37.26.12-.36-4.23,1.69-13.06,3.85-17.79Z"/>
                  <path class="cls-12" d="m140.53,170.47c-.74-6.06.53-11.75,2.68-17.41.03-.07-.08-.11-.12-.05-1.8,2.48-2.8,6.23-3.32,9.21-.5,2.86-.38,5.53.55,8.27.04.11.23.1.21-.03Z"/>
                </g>
                <path class="cls-12" d="m126.38,164.48c.05,1.12.19,2.24.44,3.33.26,1.07.66,2.16,1.39,2.89.36.36.82.59,1.31.62.5.02,1.02-.07,1.46-.29.89-.44,1.46-1.43,1.69-2.38l.58-2.39.28,2.45c.12,1.07.4,2.18.87,3.14.46.96,1.17,1.8,2.11,2.06.97.29,1.92,0,2.44-.86.55-.82.8-1.96.86-3l.17-2.91.79,2.79c.21.76.54,1.54.94,2.22.41.68.94,1.3,1.58,1.6.64.29,1.44.24,1.94-.2.54-.45.85-1.25,1.06-2.03.42-1.6.51-3.31.68-5.01.08-.85.16-1.7.28-2.55.13-.84.26-1.73.74-2.45-.4.76-.43,1.64-.51,2.47-.05.85-.07,1.7-.08,2.55-.03,1.71-.07,3.42-.43,5.15-.21.85-.46,1.76-1.2,2.48-.77.73-1.95.81-2.86.41-.92-.41-1.54-1.17-2.02-1.93-.47-.78-.82-1.58-1.08-2.46l.96-.12c-.06,1.23-.28,2.43-.98,3.55-.35.55-.91,1.04-1.58,1.25-.68.21-1.36.17-1.99-.02-1.32-.4-2.17-1.52-2.67-2.61-.51-1.12-.78-2.27-.9-3.47l.87.06c-.34,1.2-1.07,2.3-2.25,2.84-.58.26-1.21.33-1.82.27-.64-.06-1.23-.4-1.64-.86-.82-.93-1.09-2.1-1.29-3.21-.18-1.12-.22-2.26-.15-3.38Z"/>
              </g>
              <g>
                <path class="cls-7" d="m127.19,181.03s-15.32-18.52-5.15-20.96c3.02-.73,16.3-.1,16.23,2.57-.1,3.45-5.69,4.22-9.28,4.15,0,0,6.1,5.56,3.49,10.97-1.64,3.39-5.29,3.28-5.29,3.28Z"/>
                <path class="cls-12" d="m121.21,160.33c1.13-.47,2.37-.63,3.58-.75,1.22-.12,2.45-.12,3.68-.08,2.45.12,4.88.32,7.32.87.61.15,1.23.32,1.84.67.3.17.61.41.84.73.12.16.2.31.28.55.06.21.09.41.08.61-.01.78-.38,1.45-.83,1.98-.48.51-1.04.88-1.62,1.18-1.18.58-2.43.84-3.66.99-1.24.16-2.48.17-3.71.14l.29-.74c.7.67,1.28,1.39,1.82,2.16.54.77,1,1.58,1.37,2.44.36.86.6,1.78.7,2.7.1.93.02,1.86-.23,2.75.13-.91.11-1.82-.07-2.7-.17-.88-.5-1.72-.9-2.52-.4-.8-.89-1.55-1.44-2.25-.55-.7-1.17-1.37-1.82-1.93l-.83-.71,1.11-.03c1.2-.03,2.4-.06,3.57-.25,1.16-.18,2.33-.42,3.34-.94.98-.49,1.88-1.32,1.9-2.26.09-.82-1.16-1.32-2.26-1.61-1.14-.31-2.33-.5-3.53-.69-1.2-.19-2.39-.36-3.59-.48-2.4-.18-4.85-.38-7.22.19Z"/>
              </g>
            </g>
            <path class="cls-12" d="m127.17,184.49l.83,2.37.8,2.37,1.61,4.74c.54,1.58,1.1,3.15,1.67,4.71.29.78.58,1.56.9,2.33.29.79.64,1.54.96,2.32-.94-1.39-1.7-2.9-2.41-4.42-.71-1.53-1.29-3.1-1.85-4.68-.54-1.59-1.03-3.19-1.45-4.82-.42-1.62-.81-3.25-1.07-4.91Z"/>
          </g>
          <g>
            <path class="cls-11" d="m105.69,236.65c-1.5,1.21-60.89,1.87-61.14,1.45-.68-1.14,15.43-55.32,40.75-72.15,4.46-2.97,11.25-.92,14.2,1.39,1.47,1.15,5.76,9.93,6.35,17.1.58,7.15.78,51.45-.16,52.22Z"/>
            <path class="cls-1" d="m106.34,214.4v.47c-.28-.17-.57-.36-.84-.56-2.22-1.6-3.94-3.75-5.5-5.95-1.56-2.21-2.96-4.52-4.38-6.8-2.01-3.18-4.07-6.43-6.62-9.18-.11-.11-.21-.22-.31-.33-.99-1.03-2.05-1.98-3.2-2.83-4.26-3.21-10.06-4.15-15.13-2.63-2.23.7-4.25,1.96-5.99,3.52.24-.41.49-.81.73-1.22,1.53-1.2,3.25-2.17,5.11-2.76,2.62-.83,5.41-.92,8.1-.5,2.7.45,5.27,1.59,7.46,3.21,1.27.94,2.42,2,3.48,3.14.11.12.22.23.32.35,2.48,2.74,4.48,5.9,6.42,9,1.42,2.29,2.81,4.59,4.35,6.79,1.54,2.18,3.24,4.31,5.39,5.87.2.14.4.28.61.41Zm-5.61,2.56c-2.82-.07-5.6-.81-8.15-2.01-5.15-2.45-9.29-6.5-13.42-10.41-1.5-1.42-2.99-2.84-4.57-4.18-.08-.08-.16-.15-.25-.22-.52-.44-1.05-.87-1.6-1.29-2.27-1.74-4.79-3.27-7.64-3.9-1.09-.25-2.21-.35-3.33-.3-.08.13-.15.26-.23.4,1.16-.08,2.33.02,3.48.28,2.75.62,5.23,2.12,7.47,3.85.52.4,1.02.81,1.52,1.23.09.07.18.14.26.22,1.58,1.34,3.09,2.79,4.6,4.22,4.11,3.92,8.27,8.02,13.5,10.52,2.6,1.24,5.45,2.01,8.35,2.08,1.89.05,3.77-.15,5.61-.59,0-.17.01-.33,0-.5-1.83.44-3.72.65-5.6.6Zm5.56-14.04c-.61-1-1.24-1.99-1.91-2.95-1.56-2.2-3.34-4.32-5.62-5.85-2.26-1.54-5.03-2.31-7.75-2.24-.59.01-1.17.04-1.76.1-.18.02-.37.04-.56.07-.58.08-1.16.18-1.73.32-1.31.34-2.59.83-3.81,1.43-3.27,1.66-6.05,4-8.81,6.34-.11.09-.22.19-.33.27-1.24,1.07-2.49,2.12-3.77,3.11-2.12,1.65-4.38,3.13-6.83,4.22-2.45,1.07-5.09,1.73-7.77,1.86-.42.02-.83.04-1.24.04-.04.09-.08.18-.11.27.46-.01.92-.03,1.37-.05,2.7-.12,5.38-.79,7.86-1.86,2.49-1.1,4.77-2.59,6.91-4.23,1.31-1,2.58-2.07,3.84-3.14.11-.09.21-.18.32-.27,2.75-2.33,5.51-4.63,8.72-6.24,1.2-.59,2.45-1.06,3.74-1.39.64-.16,1.29-.27,1.95-.35.19-.02.38-.04.57-.05.48-.05.96-.07,1.44-.08,2.67-.05,5.33.7,7.53,2.2,2.21,1.49,3.96,3.57,5.5,5.76.8,1.15,1.54,2.33,2.26,3.54,0-.28,0-.56-.01-.83Z"/>
          </g>
          <g>
            <g>
              <path class="cls-7" d="m99.09,177.63c-3.48-.16-7.67-6.73-8.74-11.39-.07-.32,4.22-11.07,4.85-13.28.13-.46,12.97,7.33,12.97,7.33,0,0-2.69,4.26-3.76,8.13-.09.32-1.95,9.36-5.32,9.21Z"/>
              <path class="cls-12" d="m95.64,153.06c-.31,3.78-.4,13.79,7.13,16.12.49.14.95.25,1.39.31.15-.61.24-1.01.26-1.08,1.07-3.86,3.75-8.13,3.75-8.13,0-.01-.02-.01-.04-.02-.03-.03-.12-.07-.21-.13,0-.01-.03-.02-.04-.02-.1-.07-.21-.13-.36-.22-.04-.03-.09-.05-.14-.09-.09-.05-.19-.11-.29-.17-.12-.07-.23-.14-.36-.22-.19-.11-.38-.23-.6-.36-.07-.05-.14-.09-.22-.13-.15-.09-.3-.18-.46-.28-.56-.34-1.17-.7-1.81-1.08-.23-.13-.46-.28-.7-.41-.3-.17-.59-.34-.88-.53-.3-.17-.59-.34-.89-.52-.04-.02-.07-.04-.12-.06-.51-.3-1.02-.59-1.51-.88-.17-.1-.34-.19-.5-.29-.33-.19-.66-.37-.96-.55-.23-.12-.44-.24-.65-.36-.5-.27-.93-.5-1.28-.68-.1-.05-.19-.09-.28-.14-.08-.03-.16-.07-.23-.1Z"/>
            </g>
            <g>
              <path class="cls-7" d="m99.68,136.24c-3.28,4.24-6,19.05-3.76,23.43,3.25,6.35,11.19,9.85,17.26,5.35,5.88-4.36,9.08-23.72,6.33-27.97-4.05-6.26-14.98-7.07-19.83-.81Z"/>
              <g>
                <g>
                  <path class="cls-12" d="m109.54,150.42s-.09.03-.1.07c-.22,1.01-.64,2.14-1.63,2.25-.03,0-.04.05,0,.06,1.15.12,1.69-1.38,1.73-2.38Z"/>
                  <path class="cls-12" d="m108.9,149.15c-1.59-.52-2.52,2.69-1.05,3.18,1.45.48,2.38-2.74,1.05-3.18Z"/>
                </g>
                <g>
                  <path class="cls-12" d="m115.24,151.62s.06.07.05.11c-.33.98-.54,2.17.26,2.76.02.02,0,.07-.02.05-1.05-.48-.76-2.05-.29-2.93Z"/>
                  <path class="cls-12" d="m116.43,150.84c1.63.35.8,3.6-.71,3.27-1.49-.32-.66-3.57.71-3.27Z"/>
                </g>
                <path class="cls-12" d="m106.79,158.59c.16.31.28.71.63.86.33.14.78.13,1.14.11.03,0,.06.04.03.06-.38.29-1,.34-1.43.11-.42-.23-.51-.69-.48-1.13,0-.06.09-.06.11-.01Z"/>
                <path class="cls-12" d="m112.44,155.84s-.21,1.55-.4,2.25c-.02.07-1.97-.66-4.23-.53-.34.02-.26-.24.14-.35.81-.23,1.82-.4,3.65.11.1-.18.27-2.39.39-2.37.39.07,1.08.55,1.5.8.52-3.21.53-6.49,1.1-9.68.02-.11.19-.1.2,0,.24,3.43-.29,7.14-.74,10.48-.05.42-1.36-.51-1.6-.71Z"/>
                <path class="cls-12" d="m107.69,146.48c.46-.08.89-.07,1.35-.1.52-.03.93-.11,1.4.16.25.15.35.56.23.82-.28.6-.9.79-1.53.86-.68.07-1.21-.05-1.78-.42-.55-.36-.27-1.22.33-1.32Z"/>
                <path class="cls-12" d="m119.24,147.34c-.34-.32-.7-.56-1.06-.84-.41-.32-.71-.61-1.25-.65-.29-.02-.61.26-.65.54-.11.65.3,1.17.78,1.57.52.44,1.03.64,1.71.65.66.01.91-.85.47-1.28Z"/>
              </g>
              <path class="cls-1" d="m103.11,148.82c1.23.47,1.46-2.1,1.51-3,.07-.91.69-2.72.69-2.72,0,0-.75,1.76-1.32,2.48-.57.71-2.12,2.77-.88,3.25Z"/>
              <g>
                <path class="cls-12" d="m94.81,150.44s-2.35-10.42-.19-15.27c.98-2.19,4.57-2.68,4.57-2.68,0,0,0-3.06,3.34-4.61,3.52-1.63,9.82,1.11,9.82,1.11,0,0,6.23-4.67,11.38-.27,5.14,4.4-.99,9.84-.99,9.84,0,0,1.15,3.83-4.99,4.47-5.98.62-15.82-5.24-15.82-5.24,0,0-.96,5.72-3.84,10.94-1.07,1.93-3.29,1.72-3.29,1.72Z"/>
                <path class="cls-12" d="m113.35,129.41c-1.12-1.01-2.5-1.69-3.93-2.16-1.27-.42-2.63-.7-3.97-.67-2.4.05-4.83.99-5.97,3.22-.58,1.12-.66,2.38-.27,3.57.02.05.09.01.07-.03-.81-2.16.8-4.57,2.7-5.52,2.15-1.08,4.81-.87,7.05-.22,1.5.43,2.88,1.16,4.23,1.93.08.05.15-.05.08-.11Z"/>
                <path class="cls-12" d="m127.02,133c.06-1.83-1.01-3.38-2.44-4.42-1.63-1.19-3.68-1.76-5.7-1.69-2.05.07-4.02.78-5.75,1.87-.04.02,0,.09.04.07,3.12-1.9,7.12-2.23,10.34-.35,1.44.84,2.72,2.16,2.94,3.87.2,1.58-.51,3.26-1.61,4.37-1.35,1.38-3.26,2.13-5.1,2.56-.04,0-.03.07.01.07,1.75-.3,3.49-.85,4.9-1.98,1.33-1.06,2.31-2.64,2.37-4.37Z"/>
                <path class="cls-12" d="m118.94,143.73c-2.69.23-5.38-.3-7.91-1.2-2.65-.94-5.13-2.22-7.51-3.71-1.38-.86-2.73-1.78-4.06-2.72-.04-.03-.09.03-.05.07,2.25,1.93,4.61,3.76,7.22,5.18,2.44,1.32,5.03,2.22,7.8,2.53,1.51.17,3.02.14,4.52-.08.04,0,.03-.06-.01-.06Z"/>
              </g>
              <g>
                <path class="cls-7" d="m98.36,148.65s-1.55-5.64-4-5.24c-2.45.39-2.41,7.78-.32,9.53,2.09,1.75,3.75-.15,3.75-.15l.57-4.14Z"/>
                <path class="cls-12" d="m94.43,145.52s-.06.03-.04.06c1.44,1.28,1.78,3.16,1.82,5-.28-.8-.84-1.39-1.89-1.09-.06.02-.04.1.01.11.74.1,1.2.4,1.47,1.11.19.51.24,1.08.32,1.62.03.18.33.2.33,0,0-.01,0-.03,0-.04.81-2.13.21-5.74-2.03-6.77Z"/>
              </g>
            </g>
          </g>
          <g>
            <g>
              <path class="cls-7" d="m80.26,176.51c-2.92,16.36-1.16,50.66,6.29,56.41,8.63,6.65,46.41,8.02,54.81,5.54,3.34-.99-4.62-23.13-8.35-23.11-15.62.11-28.79-1.69-30.13-3.53-2.06-2.84-7.45-22.79-11.12-35.28-4.62-15.7-10.18-7.37-11.5-.03Z"/>
              <g>
                <path class="cls-12" d="m174.99,192.37l-24.04,15.68c-.71.46-.78,1.22-.15,1.68l11.16,8.38c.62.47,1.7.47,2.41.01l24.04-15.68c.71-.46.78-1.22.15-1.68l-11.16-8.38c-.62-.47-1.7-.47-2.41-.01Z"/>
                <path class="cls-3" d="m173.96,191.67l-24.04,15.68c-.71.46-.78,1.22-.15,1.68l11.16,8.38c.62.47,1.7.47,2.41.01l24.04-15.68c.71-.46.78-1.22.15-1.68l-11.16-8.38c-.62-.47-1.7-.47-2.41-.01Z"/>
                <path class="cls-1" d="m173.46,192.99l-22.05,14.38c-.67.44-.77,1.14-.21,1.55l9.99,7.49c.56.42,1.56.4,2.23-.04l22.05-14.38c1.37-.9,1.22-1.43.66-1.85l-2-1.5c-.12-.09-.36-.06-.54.06l-.08.05c-.43.28-.64.12-.9-.07l-4.63-3.47c-.26-.19-.47-.35-.04-.63l.08-.05c.18-.12.24-.28.12-.37l-2-1.5c-.56-.42-1.43-.49-2.69.33Z"/>
                <path class="cls-1" d="m180.2,196.13l1.26.95s.12.03.16,0h0s.05-.08,0-.12l-1.26-.95s-.12-.03-.16,0h0s-.05.08,0,.12Z"/>
                <polygon class="cls-11" points="162.23 202.78 170.72 209.15 180.17 202.98 171.69 196.62 162.23 202.78"/>
                <polygon class="cls-5" points="164.21 206.45 169.17 210.16 169.72 209.8 164.77 206.09 164.21 206.45"/>
                <polygon class="cls-5" points="162.39 206.36 168.25 210.76 168.53 210.58 162.67 206.18 162.39 206.36"/>
                <polygon class="cls-5" points="161.88 206.69 167.74 211.09 168.02 210.91 162.16 206.51 161.88 206.69"/>
                <polygon class="cls-5" points="161.37 207.02 167.24 211.42 167.51 211.24 161.65 206.84 161.37 207.02"/>
                <polygon class="cls-5" points="181.99 200.31 183.05 201.11 183.28 200.96 182.22 200.16 181.99 200.31"/>
                <polygon class="cls-5" points="181.57 200.59 182.63 201.38 182.86 201.23 181.8 200.44 181.57 200.59"/>
                <polygon class="cls-5" points="181.15 200.86 182.21 201.65 182.44 201.5 181.38 200.71 181.15 200.86"/>
                <path class="cls-11" d="m160.94,203.77c-.06.23,0,.39,0,.39,0,0,.24.06.56.03.37-.03.65-.24.45-.4-.16-.12-.46.01-.46.01,0,0,.22-.19.06-.31-.21-.16-.53.03-.6.28Z"/>
                <polygon class="cls-11" points="154.97 208.67 161.82 213.81 164 212.38 157.16 207.25 154.97 208.67"/>
              </g>
              <g>
                <path class="cls-7" d="m140.16,238.53c1.84,0,17.31-3.84,22-6.47,2.99-1.68,8.15-4.59,13.45-10.28,6.12-6.56,9.74-11.68,9.85-14.51.13-3.29.04-3.87-12.36,6.22-7.02,5.71-11.5,5.02-15.11,3.64-14.79-5.64-29.05-1.79-29.05-1.79,0,0,4.14,23.17,11.22,23.19Z"/>
                <path class="cls-7" d="m159.83,217.72c-3.77-1.29,11.16-4.52,12.89-8.72,1.72-4.2-2.92-4.36-7.07-3.13-14.4,4.27-22.85.77-31.5,6.69-.91.62-3.63,1.96-3.68,2.44-.41,4.11,29.36,2.72,29.36,2.72Z"/>
                <path class="cls-12" d="m150.35,208.43c-2.68-.19-5.35-.26-8.01.22-2.47.45-4.68,1.59-6.78,2.92-.09.06-.02.21.08.15,4.44-2.67,9.67-2.93,14.7-3.18.07,0,.08-.11,0-.12Z"/>
              </g>
            </g>
            <g>
              <path class="cls-11" d="m77.28,198.44l9.1-1.71,11.45-2.15s-2.69-12.76-5.97-20.72c-3.38-8.18-8.98-10.86-12.09.39-3.05,11.05-2.5,24.18-2.5,24.18Z"/>
              <g>
                <path class="cls-12" d="m78.08,194.31c3.5-.79,16.35-3.53,18.06-3.26.04,0,.06.13.03.15-1.51.85-14.5,2.84-18.05,3.33-.07,0-.1-.2-.04-.21Z"/>
                <g>
                  <path class="cls-12" d="m78.92,198.13c-.54.16-1.08.3-1.62.44l-.14.04-.02-.16c-.13-1.44-.16-2.87-.16-4.3,0-1.43.07-2.87.17-4.3.1-1.43.23-2.86.43-4.28.18-1.42.41-2.84.71-4.24-.02,1.44-.1,2.86-.17,4.29-.06,1.43-.15,2.85-.24,4.28-.15,2.85-.35,5.69-.48,8.54l-.16-.13c.56-.06,1.11-.13,1.67-.18Z"/>
                  <path class="cls-12" d="m76.52,184.49c.31.88.49,1.77.64,2.66.07.45.14.9.18,1.35.04.45.08.91.08,1.37-.38-.85-.59-1.75-.74-2.64-.14-.9-.23-1.81-.15-2.74Z"/>
                </g>
                <g>
                  <path class="cls-12" d="m97.08,194.72c.25-.08.49-.16.74-.22l-.06.1c-.39-1.18-.7-2.38-1.05-3.57l-.93-3.6c-.59-2.41-1.15-4.81-1.68-7.25.54,1.13.96,2.3,1.35,3.48.41,1.18.73,2.38,1.05,3.58.31,1.2.58,2.42.83,3.63.22,1.23.45,2.44.59,3.68v.09s-.06,0-.06,0c-.25.03-.51.04-.77.06Z"/>
                  <path class="cls-12" d="m95.96,182.59c.24.68.32,1.38.34,2.08,0,.35,0,.7-.07,1.05-.05.35-.12.7-.27,1.03-.11-.71-.14-1.39-.16-2.08,0-.69.02-1.38.16-2.09Z"/>
                </g>
              </g>
            </g>
          </g>
        </g>
      </g>
    </g>
  </g>
  <g id="Speech_Bubble" data-name="Speech Bubble">
    <g>
      <g>
        <path class="cls-1" d="m149.05,118.29c.29,3.39-2.22,6.38-5.61,6.68-3.39.29-6.38-2.22-6.68-5.61-.29-3.39,2.22-6.38,5.61-6.68,3.39-.29,6.38,2.22,6.68,5.61Z"/>
        <path class="cls-12" d="m149.05,118.29c.15,1.61-.35,3.27-1.37,4.55-1.01,1.29-2.55,2.18-4.22,2.38-1.67.21-3.44-.26-4.8-1.34-1.36-1.07-2.25-2.73-2.4-4.48-.15-1.74.44-3.53,1.59-4.82,1.15-1.3,2.82-2.07,4.5-2.15,1.68-.09,3.36.53,4.57,1.62,1.22,1.08,2,2.63,2.13,4.24Zm0,0c-.14-1.61-.96-3.15-2.22-4.14-1.26-1-2.9-1.43-4.43-1.23-1.55.19-2.96,1.02-3.88,2.2-.94,1.18-1.4,2.7-1.26,4.18.12,1.48.83,2.9,1.95,3.9,1.11,1.01,2.65,1.58,4.2,1.5,1.55-.07,3.09-.78,4.16-1.97,1.07-1.19,1.61-2.84,1.48-4.46Z"/>
      </g>
      <g>
        <path class="cls-1" d="m135.69,129.65c.16,1.89-1.24,3.55-3.12,3.72-1.89.16-3.55-1.24-3.72-3.12-.16-1.89,1.24-3.55,3.12-3.72,1.89-.16,3.55,1.24,3.72,3.12Z"/>
        <path class="cls-12" d="m135.69,129.65c.2,1.79-1.14,3.69-3.1,3.96-.95.15-2-.1-2.8-.71-.81-.61-1.34-1.59-1.43-2.62-.09-1.03.27-2.08.96-2.83.69-.75,1.68-1.16,2.64-1.18,1.98-.06,3.62,1.58,3.74,3.38Zm0,0c-.08-.9-.55-1.75-1.26-2.28-.71-.53-1.61-.73-2.44-.6-1.69.26-2.81,1.9-2.65,3.42.1,1.53,1.48,2.96,3.2,2.92.84,0,1.69-.36,2.3-1.01.61-.64.92-1.56.85-2.46Z"/>
      </g>
      <g>
        <path class="cls-1" d="m195.18,89.6c1.2,9.87-5.83,18.85-15.7,20.06-3.24.39-6.38-.1-9.18-1.28-2.38,3.12-5.97,5.3-10.18,5.82-5.52.67-10.72-1.73-13.86-5.87-.65.2-1.33.34-2.02.42-6.72.81-12.83-3.97-13.65-10.69-.38-3.13.45-6.12,2.13-8.52-1.98-2.51-3.32-5.57-3.73-8.98-1.2-9.88,5.83-18.86,15.7-20.06,4.5-.54,8.8.61,12.28,2.97,2.38-2.98,5.89-5.06,9.98-5.56,7.06-.86,13.58,3.3,15.97,9.68.62-.21,1.27-.35,1.94-.44,5.42-.66,10.35,3.21,11,8.62.36,2.97-.63,5.8-2.5,7.85.94,1.82,1.56,3.82,1.82,5.97Z"/>
        <path class="cls-12" d="m195.18,89.6c.34,3.11-.03,6.34-1.29,9.22-.58,1.46-1.44,2.79-2.37,4.06-1.01,1.2-2.08,2.38-3.36,3.3-2.49,1.94-5.53,3.1-8.64,3.54-3.12.41-6.36,0-9.28-1.22l.17-.04c-1.41,1.86-3.25,3.41-5.35,4.45-2.1,1.05-4.44,1.61-6.79,1.62-2.35,0-4.71-.52-6.83-1.57-2.12-1.04-3.99-2.57-5.45-4.44l.37.12c-1.24.4-2.55.55-3.84.54-1.3,0-2.6-.23-3.83-.65-2.49-.8-4.67-2.44-6.22-4.54-.76-1.07-1.35-2.24-1.78-3.48-.39-1.25-.62-2.55-.63-3.86-.04-2.62.78-5.24,2.29-7.39l.02.56c-2.71-3.41-4.19-7.83-3.95-12.2.18-4.36,1.95-8.65,4.95-11.82,2.98-3.2,7.11-5.24,11.44-5.74,4.33-.48,8.8.66,12.36,3.13l-.45.07c1.71-2.11,3.98-3.74,6.5-4.7,2.53-.95,5.3-1.22,7.96-.78,2.65.44,5.19,1.58,7.24,3.31,2.08,1.7,3.66,3.97,4.6,6.47l-.13-.06c2.08-.68,4.39-.65,6.44.09,2.06.71,3.87,2.14,5.04,3.98,1.2,1.82,1.74,4.05,1.56,6.22-.17,2.17-1.1,4.27-2.57,5.87v-.02c.96,1.86,1.56,3.9,1.8,5.97Zm0,0c-.25-2.07-.87-4.1-1.83-5.96h0s0-.02,0-.02c1.46-1.6,2.36-3.69,2.52-5.85.16-2.15-.39-4.36-1.58-6.16-1.17-1.81-2.96-3.21-5-3.9-2.03-.72-4.3-.71-6.33-.02l-.1.03-.04-.1c-.96-2.45-2.55-4.66-4.61-6.29-2.03-1.66-4.53-2.73-7.11-3.13-2.58-.38-5.27-.09-7.69.86-2.42.96-4.58,2.57-6.18,4.6l-.19.24-.26-.17c-3.47-2.33-7.77-3.36-11.9-2.84-4.13.5-8.05,2.47-10.87,5.52-2.84,3.03-4.49,7.11-4.64,11.24-.2,4.14,1.14,8.32,3.71,11.57l.22.28-.2.29c-1.4,1.98-2.18,4.4-2.16,6.84,0,1.22.21,2.43.57,3.59.39,1.15.94,2.25,1.64,3.25,1.44,1.96,3.45,3.52,5.77,4.31,1.15.41,2.37.64,3.59.66,1.22.03,2.46-.1,3.63-.46l.23-.07.14.19c1.36,1.81,3.14,3.3,5.17,4.34,2.02,1.04,4.29,1.58,6.57,1.6,2.28.02,4.57-.48,6.62-1.48,2.06-.99,3.88-2.48,5.29-4.28l.07-.09.1.04c2.86,1.24,6.05,1.7,9.15,1.33,3.09-.42,6.12-1.56,8.6-3.47,1.28-.91,2.35-2.07,3.36-3.26.92-1.26,1.79-2.58,2.38-4.04,1.27-2.87,1.66-6.09,1.34-9.2Z"/>
      </g>
      <g>
        <path class="cls-11" d="m171.89,89.11l-.57,2.73c-.25,1.18-1.31,1.87-2.49,1.63-1.09-.23-1.87-1.31-1.63-2.49l.91-4.37s.05-.03.06-.08q-.03-.05-.02-.09c.23-1.09,1.4-1.86,2.49-1.63,2.65.55,5.23-1.1,5.77-3.71.55-2.65-1.16-5.15-3.81-5.7-1.72-.36-3.43.25-4.51,1.47-.8.89-2.13.96-3.01.16-.84-.79-.93-2.08-.13-2.96,2.05-2.29,5.28-3.46,8.51-2.79,4.87,1.02,8.04,5.8,7.03,10.67-.87,4.16-4.49,7.04-8.59,7.15Zm-1.92,9.2l-.16.76c-.24,1.18-1.31,1.87-2.49,1.63-1.09-.23-1.87-1.31-1.63-2.49l.16-.76c.24-1.13,1.4-1.86,2.49-1.63,1.18.24,1.87,1.35,1.63,2.49Z"/>
        <path class="cls-11" d="m150.03,83.56l-.34-2.77c-.15-1.19.64-2.2,1.83-2.35,1.11-.14,2.2.64,2.34,1.83l.55,4.43s-.04.05-.03.09t.05.08c.14,1.11-.72,2.21-1.83,2.34-2.68.33-4.59,2.73-4.26,5.37.33,2.68,2.76,4.5,5.44,4.17,1.75-.22,3.16-1.34,3.8-2.85.47-1.1,1.71-1.59,2.8-1.12,1.05.48,1.55,1.67,1.08,2.76-1.21,2.83-3.88,4.98-7.16,5.38-4.94.61-9.48-2.89-10.09-7.83-.52-4.22,1.98-8.11,5.82-9.54Zm-1.15-9.33l-.09-.77c-.15-1.19.64-2.2,1.83-2.34,1.11-.14,2.2.64,2.34,1.83l.09.77c.14,1.15-.72,2.21-1.83,2.34-1.19.15-2.2-.68-2.34-1.83Z"/>
      </g>
    </g>
  </g>
</svg>